
        <svg xmlns:rdf="http://www.w3.org/1999/02/22-rdf-syntax-ns#" xmlns="http://www.w3.org/2000/svg" xmlns:cc="http://creativecommons.org/ns#" xmlns:xlink="http://www.w3.org/1999/xlink" xmlns:dc="http://purl.org/dc/elements/1.1/" x="0px" y="0px" width="501" height="468" viewBox="0 0 501 468" xml:space="preserve">
            <title>Heliopora coerulea (Blue Coral)</title>
            <desc xmlns:ian_image_library="https://ian.umces.edu/media-library/">
                <ian_image_library:title>Heliopora coerulea (Blue Coral)</ian_image_library:title>
                <ian_image_library:descr>Illustration of Heliopora coerulea (Blue Coral), which is so named as the skeleton is blue. It is classified as Vulnerable by the IUCN due to overharvesting for the aquarium industry.</ian_image_library:descr>
                <ian_image_library:scene>
                    <ian_image_library:contains>cnidaria, animal, coral, Animalia, Cnidaria, Anthozoa, Octocorallia, Helioporacea, Helioporidae, Heliopora coerulea, Blue Coral, vulnerable, overharvesting</ian_image_library:contains>
                    <ian_image_library:when>2012-05-19</ian_image_library:when>
                </ian_image_library:scene>
            </desc>
            <metadata id="metadata-iil-9742c6aaa839c394ed01aef16098d519">
                <rdf:RDF>
                <cc:Work
                rdf:about="">
                <dc:format>image/svg+xml</dc:format>
                <dc:type
                rdf:resource="http://purl.org/dc/dcmitype/StillImage" />
                <cc:license
                rdf:resource="http://creativecommons.org/licenses/by-sa/3.0/" />
                <dc:title>Heliopora coerulea (Blue Coral)</dc:title>
                <dc:date>2012-05-19</dc:date>
                <dc:creator>
                    <cc:Agent>
                        <dc:title></dc:title>
                    </cc:Agent>
                </dc:creator>
                <dc:rights>
                <cc:Agent>
                    <dc:title></dc:title>
                </cc:Agent>
                </dc:rights>
                <dc:publisher>
                <cc:Agent>
                    <dc:title>Integration and Application Network</dc:title>
                </cc:Agent>
                </dc:publisher>
                <dc:identifier>https://ian.umces.edu/media-library/heliopora-coerulea-blue-coral/</dc:identifier>
                <dc:source>https://ian.umces.edu/media-library/heliopora-coerulea-blue-coral/</dc:source>
                <dc:language>en-US</dc:language>
                <dc:subject>
                <rdf:Bag>
                    <rdf:li>cnidaria, animal, coral, Animalia, Cnidaria, Anthozoa, Octocorallia, Helioporacea, Helioporidae, Heliopora coerulea, Blue Coral, vulnerable, overharvesting</rdf:li>
                </rdf:Bag>
                </dc:subject>
                <dc:coverage></dc:coverage>
                <dc:description>Illustration of Heliopora coerulea (Blue Coral), which is so named as the skeleton is blue. It is classified as Vulnerable by the IUCN due to overharvesting for the aquarium industry.</dc:description>
                <dc:contributor>
                <cc:Agent>
                    <dc:title></dc:title>
                </cc:Agent>
                </dc:contributor>
            </cc:Work>
            <cc:License
                rdf:about="http://creativecommons.org/licenses/by-sa/3.0/">
                <cc:permits
                rdf:resource="http://creativecommons.org/ns#Reproduction" />
                <cc:permits
                rdf:resource="http://creativecommons.org/ns#Distribution" />
                <cc:requires
                rdf:resource="http://creativecommons.org/ns#Notice" />
                <cc:requires
                rdf:resource="http://creativecommons.org/ns#Attribution" />
                <cc:permits
                rdf:resource="http://creativecommons.org/ns#DerivativeWorks" />
                <cc:requires
                rdf:resource="http://creativecommons.org/ns#ShareAlike" />
            </cc:License>
            </rdf:RDF>
            </metadata>
            
<defs>
</defs>
<linearGradient id="ian_symbols_7c481b7ff85bf6342137eeb988b334b2" gradientUnits="userSpaceOnUse" x1="112.7744" y1="86.7656" x2="109.817" y2="256.1964">
	<stop  offset="0" style="stop-color:#DFD197"/>
	<stop  offset="0.3697" style="stop-color:#916C3A"/>
	<stop  offset="0.6242" style="stop-color:#55282B"/>
	<stop  offset="1" style="stop-color:#401E2F"/>
</linearGradient>
<path fill="url(#ian_symbols_7c481b7ff85bf6342137eeb988b334b2)" d="M146.391,90.294c0.047,0.349-0.057,0.476-0.316,0.387c-3.266-2.107-5.789-2.782-9.558-3.205
	c-3.509-0.397-6.541-1.067-9.277,1.802c-2.46,2.577-4.433,4.644-8.046,5.107c-3.271,0.421-5.529-2.735-8.285-3.977
	c-2.793-1.259-5.83-2.746-9.288-1.824c-2.964,0.789-4.698,3.992-7.33,5.35c-2.959,1.523-6.743,0.654-9.656,2.144
	c-2.793,1.426-5.596,2.863-7.938,5.207c-2.585,2.596-6.837,3.657-8.27,7.141c-0.779,1.908-0.722,5.101-0.462,7.263
	c0.265,2.204,0.54,4.615,1.371,6.765c1.734,4.506,2.954,8.874,3.525,13.622c0.301,2.502,0.099,5.165,0.099,7.704
	c0,1.918,0.716,5.733-0.452,7.252l2.269,50.312l33.993,8.612l26.289,46.683l19.488-11.784l-0.903-64.813L146.391,90.294z"/>
<path fill="#F8FCFF" d="M70.121,111.95c0.997-1.174,2.009-2.09,3.307-2.606c1.563-0.62,3.11-0.39,4.636-1.259
	c2.357-1.345,4.61-3.444,6.811-4.974c1.184-0.822,2.295-1.913,3.598-2.289c1.729-0.498,3.618-0.044,5.342-0.534
	c2.731-0.776,4.968-5.479,8.166-4.462c1.142,0.36,2.518,1.643,3.504,2.289c1.713,1.124,2.627,1.345,4.641,1.801
	c3.317,0.751,4.864,4.242,7.725,5.324c2.082,0.789,2.435,0.459,3.732-1.246c1.35-1.765,1.718-1.855,3.956-1.563
	c3.172,0.418,4.241-1.719,5-4.418c0.872-3.086,2.352-4.049,5.892-3.649c2.3,0.26,4.454,1.957,6.785,2.73
	c1.262,0.418,2.508,0.636,3.785,0.758l-0.607-7.559c0.047,0.349-0.057,0.476-0.316,0.387c-3.266-2.107-5.789-2.782-9.558-3.205
	c-3.509-0.397-6.541-1.067-9.277,1.802c-2.46,2.577-4.433,4.644-8.046,5.107c-3.271,0.421-5.529-2.735-8.285-3.977
	c-2.793-1.259-5.83-2.746-9.288-1.824c-2.964,0.789-4.698,3.992-7.33,5.35c-2.959,1.523-6.743,0.654-9.656,2.144
	c-2.793,1.426-5.596,2.863-7.938,5.207c-2.585,2.596-6.837,3.657-8.27,7.141c-0.779,1.9-0.722,5.069-0.467,7.231
	c0,0,0-0.002,0.005-0.002C68.485,114.361,69.212,113.014,70.121,111.95z"/>
<linearGradient id="ian_symbols_0469b617c16cde24158b0b3b86035dcd" gradientUnits="userSpaceOnUse" x1="195.1172" y1="28.8447" x2="192.9743" y2="151.6112">
	<stop  offset="0" style="stop-color:#E3D1A2"/>
	<stop  offset="0.5212" style="stop-color:#927239"/>
	<stop  offset="1" style="stop-color:#805020"/>
</linearGradient>
<path fill="url(#ian_symbols_0469b617c16cde24158b0b3b86035dcd)" d="M207.005,29.052c2.077,0.984,0.914,5.199,0.914,7.193c0,2.782,0.114,5.279,0.67,7.826
	c0.503,2.294,1.09,5.329,0.706,7.829c-0.151,0.994-0.784,2.051-1.028,3.053c-0.301,1.251-0.607,2.377-0.763,3.729
	c-0.327,2.793-0.929,5.669-0.945,8.498c-0.021,2.819,0.789,5.768,1.375,8.498c1.163,5.392,3.759,10.357,3.722,15.977
	c-0.016,2.557,0.343,5.173,0.343,7.818c0,2.79-0.01,5.477-0.42,8.161c-0.395,2.601-0.602,5.079-0.602,7.817
	c0,2.606,0.182,5.387-0.358,7.8c-1.08,4.856-1.324,9.869-2.71,14.643c-0.602,2.079-1.132,4.171-1.428,6.375
	c-0.161,1.202-0.618,2.458-0.602,3.815c0.01,0.908-0.036,3.341-0.68,3.74l-19.037-82.264l3.738-5.101l-3.032-10.647l-10.227-6.009
	l4.423-5.441L207.005,29.052z"/>
<path fill="#DFC184" d="M168.231,48.543c-1.22,1.353-1.625,3.377-1.625,9.727c0,6.349,0,15.127,0,15.667s21.612-8.913,21.612-8.913
	l-1.35-11.211l-12.428-4.864C174.44,48.948,169.446,47.193,168.231,48.543z"/>
<linearGradient id="ian_symbols_212c5a89a2cda444496ea2b246e1aa64" gradientUnits="userSpaceOnUse" x1="175.5713" y1="286.5186" x2="167.623" y2="58.9112">
	<stop  offset="0" style="stop-color:#88653A"/>
	<stop  offset="0.6303" style="stop-color:#C6A14F"/>
</linearGradient>
<path fill="url(#ian_symbols_212c5a89a2cda444496ea2b246e1aa64)" d="M210.333,152.125c-0.592-2.042-1.697-4.332-2.59-6.247c-1.334-2.879-1.194-3.549-0.81-6.632
	c1.334-10.668-5.419-19.216-8.192-28.539c-1.537-5.152-0.68-11.557-0.68-17.013c0-2.754,0.545-6.188-0.156-8.835
	c-1.101-4.188-2.565-1.348-5.187-2.145c0.063-1.957-0.768-3.826-0.778-6.017c-0.011-2.084,0.41-3.509,0.675-5.443
	c0.275-1.957-0.01-4.135,0.005-6.115c0.005-1.002,0.254-2.331-0.135-3.263c-0.208-0.496-1.267-0.784-1.407-1.311
	c-0.146-0.529-0.177-1.129-0.161-1.771c-1.807-0.402-3.613-0.548-5.419-0.509c-0.441,1.617-1.21,2.29,0.898,4.646
	c-3.686,3.26-7.47,3.958-11.981,5.077c-2.165,0.537-5.155,1.262-7.133,2.386c-1.994,1.129-3.707,2.691-5.789,3.766
	c-2.248,1.163-4.589,1.049-6.961,1.843c-1.947,0.649-4.335,1.96-6.256,3.227c-3.665,2.419-7.029,4.875-8.706,9.005
	c-1.801,4.44-3.707,9.51-4.906,14.131c-0.665,2.559-0.182,4.932,0.13,7.68c0.254,2.225,0.478,4.942,0.716,7.442
	c0.265,2.749,1.095,4.731,1.36,7.48c0.254,2.663,0,5.479,0,8.158c0,2.855,0.254,5.899-0.15,8.688
	c-0.286,1.965-1.687,4.231-1.926,6.235c-0.633,5.44,1.916,8.664,4.267,12.952c4.48,8.174-5.025,4.402-7.496,9.653
	c-1.106,2.359,0.582,5.494,1.075,7.493c0.607,2.453,1.256,4.81,2.196,7.328c2.061,5.555,4.07,9.562,4.075,15.639
	c0,2.917,0.062,5.531,0.695,8.137c0.514,2.087,1.339,4.083,2.025,6.139c0.882,2.671,2.02,4.454,0.488,7.325
	c-0.986,1.854-2.912,3.19-3.753,5.049c-1.807,4.008-2.061,10.847-1.51,15.52c0.54,4.609,2.502,10.502,4.246,14.79
	c1.345,3.307,3.681,10.928,7.325,12.386l19.716,16.316c0,0,27.197-14.956,26.518-16.996c-0.68-2.04,14.956-62.548,14.956-62.548
	c2.144-0.563,1.365-3.742,1.36-5.44c-0.026-11.467,0.68-22.501,0.68-33.992C211.656,162.472,211.739,156.953,210.333,152.125z"/>
<linearGradient id="ian_symbols_d695fade0c30fef441aa36670a022ec9" gradientUnits="userSpaceOnUse" x1="162.5806" y1="167.0547" x2="175.0181" y2="24.8926">
	<stop  offset="0" style="stop-color:#96804B"/>
	<stop  offset="0.3212" style="stop-color:#E1DCCD"/>
	<stop  offset="1" style="stop-color:#F9FCF7"/>
</linearGradient>
<path fill="url(#ian_symbols_d695fade0c30fef441aa36670a022ec9)" d="M144.382,160.286c-0.577-3.66-3.566-6.442-2.238-10.328c0.649-1.907,1.298-3.141,1.677-5.121
	c0.384-2.017,0.026-3.328-0.15-5.591c-0.088-1.106,0.187-2.308,0.016-3.4c-0.182-1.129-1.038-1.983-1.241-2.871
	c-0.556-2.424,0-3.595,1.069-5.438c1.755-3.004,4.267-6.105,4.76-9.519c0.691-4.731-1.313-6.56-2.735-10.56
	c-1.334-3.761-2.253-8.145-1.869-12.404c0.208-2.333,0.732-3.972,2.191-6.004c0.924-1.292,3.847-1.993,4.044-4.06
	c4.521-0.41,8.903-4.75,12.817-6.234c2.196-0.831,4.563-0.711,6.8-1.36c2.258-0.656,4.527-1.705,6.816-2.549
	c3.691-1.36,8.592-2.159,11.711-4.745c1.459-1.207,3.136-3.255,4.579-5.16c0.031-0.976,0.223-2.193-0.146-3.065
	c-0.208-0.496-1.267-0.784-1.407-1.311c-0.743-2.757,1.386-7.278-1.329-10.229c-2.253-2.445-6.448-1.583-9.261-3.009
	c-0.197-2.583,4.63-3.654,6.541-4.812c2.237-1.36,4.236-2.967,6.442-4.4c4.729-3.078,9.214-5.555,14.666-7.088
	c0.223-1.015,0.229-2.154,0.016-3.177c-3.878-0.854-9.417,1.625-12.683,3.429c-3.286,1.817-6.333,4.029-9.464,6.17
	c-3.224,2.201-7.413,3.242-10.896,5.407c-3.208,1.996-8.524,3.946-7.543,8.584c3.369,0.454,7.076,0.174,10.113,1.445
	c1.371,0.573,2.377,1.68,3.894,2.225c1.334,0.475,2.788,0.639,4.143,1.326c0.099,3.219-2.082,3.411,0.68,6.497
	c-3.686,3.26-7.47,3.958-11.981,5.077c-2.165,0.537-5.155,1.262-7.133,2.386c-1.994,1.129-3.707,2.691-5.789,3.766
	c-2.248,1.163-4.589,1.049-6.961,1.843c-1.947,0.649-4.335,1.96-6.256,3.227c-3.665,2.419-7.029,4.875-8.706,9.005
	c-1.801,4.44-3.707,9.51-4.906,14.131c-0.665,2.559-0.182,4.932,0.13,7.68c0.254,2.225,0.478,4.942,0.716,7.442
	c0.265,2.749,1.095,4.731,1.36,7.48c0.254,2.663,0,5.479,0,8.158c0,2.855,0.254,5.899-0.15,8.688
	c-0.286,1.965-1.687,4.231-1.926,6.235c-0.633,5.44,1.916,8.664,4.267,12.952c1.059,1.937,1.329,3.195,1.101,4.069
	C142.809,165.524,145.01,164.234,144.382,160.286z"/>
<linearGradient id="ian_symbols_caa5948dc29a405431b9d8e96136a643" gradientUnits="userSpaceOnUse" x1="254.04" y1="322.4863" x2="196.2609" y2="50.6568">
	<stop  offset="0.1455" style="stop-color:#3F202F"/>
	<stop  offset="0.3818" style="stop-color:#4C353C"/>
	<stop  offset="0.6" style="stop-color:#8E7240"/>
	<stop  offset="0.9636" style="stop-color:#AC9E74"/>
</linearGradient>
<path fill="url(#ian_symbols_caa5948dc29a405431b9d8e96136a643)" d="M201.684,49.504c-2.622,1.724-1.36,6.889-1.36,9.518c0,3.414-2.388,5.955-1.833,9.542
	c0.197,1.311,1.111,2.608,1.495,3.942c0.446,1.571,0.877,3.012,1.22,4.667c0.701,3.356,0.93,7.269,0.93,10.855
	c0,3.645,0.026,7.122,0.898,10.427c0.488,1.848,0.213,3.562,0.441,5.461c0.202,1.669,0.701,3.515,0.488,5.425
	c-0.343,3.029-2.398,6.495-3.198,9.509c-0.872,3.299-0.716,7.789-0.337,11.23c0.493,4.512,1.708,9.34,1.708,14.152
	c0,4.653-1.459,9.311-2.689,13.622c-1.147,4.015-2.959,8.129-4.106,12.212c-0.607,2.16-1.609,4.49-1.812,6.798
	c-0.239,2.674,0,5.478,0,8.158c0,0,12.236,78.415,12.688,81.13c0.457,2.721,11.847,51.197,11.847,51.197s19.654,2.663,23.719,4.817
	c4.07,2.154,11.488,0.482,11.488,0.482l-5.508-117.274l-14.805-54.797l0.457-43.965l4.532-28.555l-9.973-16.319L213.92,49.955
	L201.684,49.504z"/>
<linearGradient id="ian_symbols_e09629785fc86de41d19b8fe1bc27ab0" gradientUnits="userSpaceOnUse" x1="229.8179" y1="10.2227" x2="282.9442" y2="183.9909">
	<stop  offset="0" style="stop-color:#DFD197"/>
	<stop  offset="0.3697" style="stop-color:#916C3A"/>
	<stop  offset="1" style="stop-color:#55282B"/>
</linearGradient>
<path fill="url(#ian_symbols_e09629785fc86de41d19b8fe1bc27ab0)" d="M279.491,12.562c-1.484,2.17-9.401-9.295-10.273-10.195c-1.313-1.363-2.201-1.879-4.08-2.243
	c-1.844-0.356-2.768,0.091-4.527,0.882c-1.152,0.517-2.237,1.425-3.286,2.152c-1.718,1.194-2.674,1.479-4.875,1.474
	c-3.686-0.013-6.141,0.896-8.949,3.284c-2.175,1.848-4.247,3.979-6.121,6.121c-2.191,2.502-3.748,3.833-6.791,4.986
	c-2.72,1.03-7.486,1.869-9.084,4.623c-0.841,1.454-0.296,3.507-0.758,5.031c-0.483,1.588-1.656,2.839-2.632,4.168
	c-1.941,2.653-4.293,3.603-6.899,5.44c-1.142,0.807-1.999,1.807-3.074,2.718c-1.188,1.01-2.466,1.588-3.748,2.494
	c-2.071,1.461-4.942,4.272-4.179,6.572c1.121,3.361,5.918,2.606,8.721,2.606c3.998,0,5.394,0.719,7.252,4.08
	c1.697,3.07,4.164,3.847,6.795,5.893c2.191,1.694,4.771,3.568,6.448,5.892c1.723,2.388,2.902,5.736,3.992,8.597
	c1.085,2.84,1.241,7.086,0.54,10.087c-0.779,3.346-2.627,6.193-3.738,9.394c-0.54,1.563-0.727,3.815-0.919,5.462
	c-0.228,1.985-0.425,3.859-0.425,5.892c0,1.879,0.14,3.273,0.566,4.976c0.441,1.805,0.95,3.528,0.794,5.451
	c-0.275,3.289-1.573,6.359-2.258,9.528c-0.732,3.383-0.914,6.666-0.914,10.414c0,3.795,0.914,7.61,0.473,11.354
	c-0.171,1.482-0.8,2.907-0.93,4.512c-0.161,2.032-0.015,3.981,0.478,5.889c0.721,2.78,1.448,5.773,2.227,8.626
	c0.685,2.491,13.175,24.941,13.419,27.563l35.659-76.341L279.491,12.562z"/>
<path fill="#FFFBF2" d="M238.386,160.562c-0.789-3.278-1.495-6.287-1.9-9.882c-0.399-3.556-0.348-7.327,0.099-10.979
	c0.426-3.471,1.75-6.505,2.165-9.973c0.441-3.642,0.046-7.405-0.343-10.889c-0.389-3.507-1.822-6.516-1.381-10.424
	c0.176-1.545,0.706-2.868,0.898-4.546c0.171-1.544,0.95-3.551,1.282-5.063c0.763-3.522,1.573-7.136,1.911-10.777
	c0.316-3.465,0.478-7.886,0-11.33c-0.473-3.372-1.771-5.7-3.738-8.501c-1.578-2.242-3.53-4.337-5.326-6.458
	c-0.794-0.935-1.604-2.103-2.72-2.718c-1.428-0.783-2.954-0.734-4.418-1.474c-2.637-1.327-3.416-4.114-5-6.334
	c-1.583-2.217-5.352-4.01-4.075-7.501c0.924-2.536,4.309-3.834,6.125-5.653c2.123-2.121,3.322-5.005,5.555-7.04
	c0.867-0.792,2.128-1.103,2.845-1.89c1.049-1.155,0.805-2.791,1.688-4.101c1.76-2.617,3.52-2.996,6.245-1.713
	c7.044,3.312,7.569-8.417,13.222-9.188c2.845-0.392,5.954-0.667,8.633,0.023c1.199,0.306,2.555,0.491,3.738,0.794
	c1.24,0.317,2.439,1.114,3.618,1.368c1.5,0.324,2.528,0.27,3.977,0.882c1.422,0.603,2.746,1.22,4.075,1.939
	c0.057,0.031,0.13,0.073,0.202,0.109l3.728-8.493c-1.484,2.17-9.401-7.483-10.273-8.384c-1.313-1.363-2.201-1.879-4.08-2.243
	c-1.844-0.356-2.768,0.091-4.527,0.882c-1.152,0.517-2.237,1.425-3.286,2.152c-1.718,1.194-2.674,1.479-4.875,1.474
	c-3.686-0.013-6.141,0.896-8.949,3.284c-2.175,1.848-4.247,3.979-6.121,6.121c-2.191,2.502-3.748,3.833-6.791,4.986
	c-2.72,1.03-7.486,1.869-9.084,4.623c-0.841,1.454-0.296,3.507-0.758,5.031c-0.483,1.588-1.656,2.839-2.632,4.168
	c-1.941,2.653-4.293,3.603-6.899,5.44c-1.142,0.807-1.999,1.807-3.074,2.718c-1.188,1.01-2.466,1.588-3.748,2.494
	c-2.071,1.461-4.942,4.272-4.179,6.572c1.121,3.361,5.918,2.606,8.721,2.606c3.998,0,5.394,0.719,7.252,4.08
	c1.697,3.07,4.164,3.847,6.795,5.893c2.191,1.694,4.771,3.568,6.448,5.892c1.723,2.388,2.902,5.736,3.992,8.597
	c1.085,2.84,1.241,7.086,0.54,10.087c-0.779,3.346-2.627,6.193-3.738,9.394c-0.54,1.563-0.727,3.815-0.919,5.462
	c-0.228,1.985-0.425,3.859-0.425,5.892c0,1.879,0.14,3.273,0.566,4.976c0.441,1.805,0.95,3.528,0.794,5.451
	c-0.275,3.289-1.573,6.359-2.258,9.528c-0.732,3.383-0.914,6.666-0.914,10.414c0,3.795,0.914,7.61,0.473,11.354
	c-0.171,1.482-0.8,2.907-0.93,4.512c-0.161,2.032-0.015,3.981,0.478,5.889c0.721,2.78,1.448,5.773,2.227,8.626
	c0.685,2.491,1.625,6.917,2.736,8.145c1.111,1.23,5.181-0.205,7.335-2.359c2.155-2.154,0.078-8.719,0.021-9.071
	C239.118,163.707,238.776,162.188,238.386,160.562z"/>
<linearGradient id="ian_symbols_99ea3e789c7a53d4091270e89526e7ed" gradientUnits="userSpaceOnUse" x1="39.5356" y1="165.8125" x2="41.0607" y2="122.1419">
	<stop  offset="0" style="stop-color:#CDA671"/>
	<stop  offset="1" style="stop-color:#D8CC97"/>
</linearGradient>
<path fill="url(#ian_symbols_99ea3e789c7a53d4091270e89526e7ed)" d="M18.571,165.08c0.722-3.021-0.369-6.72-4.641-8.274c-4.272-1.553,0.763-10.297,2.601-14.84
	c1.755-4.327,5.576-8.16,8.675-11.727c3.323-3.829,9.246-5.519,13.726-6.669c5.238-1.342,15.122-1.985,18.273,0.836
	c3.156,2.821-2.035,2.848-0.457,5.187c1.578,2.341,4.641,2.043,6.546,3.006c2.46,1.248,3.275,3.312,4.911,5.287l-2.721,14.278
	L18.571,165.08z"/>
<path fill="#F8FCFF" d="M63.294,132.599c-1.905-0.963-4.968-0.665-6.546-3.006c-1.578-2.339,3.613-2.365,0.457-5.187
	c-3.151-2.821-13.036-2.178-18.273-0.836c-4.48,1.15-10.403,2.84-13.726,6.669c-3.099,3.566-6.92,7.399-8.675,11.727
	c-1.837,4.543-6.873,13.287-2.601,14.84c4.272,1.555,5.363,5.253,4.641,8.274l4.423-1.217c-0.078-1.42-0.301-2.801-0.852-4.156
	c-0.664-1.632-2.097-2.533-3.026-3.979c-2.284-3.538-1.022-7.525,1.028-10.767c1.002-1.586,2.404-2.879,3.416-4.48
	c1.085-1.724,2.077-3.424,3.525-4.88c2.809-2.827,6.281-5.243,9.978-6.774c3.587-1.485,8.125-2.521,11.961-1.576
	c1.635,0.405,2.928,1.503,3.322,3.141c0.333,1.363,0.665,3.1,2.045,3.803c1.558,0.795,3.312,0.984,4.896,1.708
	c1.282,0.584,2.653,0.955,3.956,1.428c1.573,0.566,2.684,1.215,3.966,2.3c0.192,0.164,0.363,0.423,0.53,0.703l0.467-2.447
	C66.569,135.91,65.754,133.847,63.294,132.599z"/>
<linearGradient id="ian_symbols_919023b0f8f8a4c4fd97c836905969ec" gradientUnits="userSpaceOnUse" x1="78.8193" y1="127.957" x2="65.0605" y2="324.7178">
	<stop  offset="0" style="stop-color:#E3C592"/>
	<stop  offset="0.5212" style="stop-color:#916C3A"/>
	<stop  offset="1" style="stop-color:#55282B"/>
</linearGradient>
<path fill="url(#ian_symbols_919023b0f8f8a4c4fd97c836905969ec)" d="M6.335,194.995c-2.751-1.342-3.411-7.366-3.4-10.198c0.016-4.675,0.166-9.251,0.68-13.599
	c0.612-5.248,1.147-7.063,6.8-7.476c3.945-0.29,6.842-1.957,10.03-4.249c2.969-2.142,5.752-4.202,9.157-5.118
	c4.247-1.143,8.229-1.096,12.766-1.514c4.262-0.395,8.026-1.999,12.085-2.868c3.717-0.797,6.572-2.979,10.216-4.063
	c0.088-0.363,0.177-0.729,0.265-1.095c3.587-0.781,6.733-7.715,5.493-10.513c-0.722-1.628-3.26-2.481-4.111-4.047
	c-1.708-3.128,0.706-3.657,3.265-2.585c9.5,3.979,7.865,16.905,8.784,25.206c0.935,8.421,6.936,17.013,9.557,25.121
	c1.454,4.501,3.432,8.604,3.395,13.599c-0.036,5.703,0.504,10.668,0.68,16.316c0.171,5.347,0.748,10.904,1.516,16.166
	c0.602,4.16,2.922,8.591,4.454,12.539c1.786,4.61,41.686,49.785,41.686,54.903c0,5.55-38.815,35.717-41.572,35.405
	c-5.254-0.598-9.812-3.987-15.6-3.438c-5.892,0.562-12.35,2.648-18.336,0.665c-4.599-1.531-7.849-5.985-9.536-10.186
	c-0.95-2.367-2.02-4.979-2.72-7.46c-0.867-3.042-1.303-6.671-2.72-9.531L6.335,194.995z"/>
<path fill="#DFC184" d="M62.536,148.764c-0.327-1.409,0.586-3.236,0.908-4.521c0.446-1.801,0.914-3.07,0.909-4.996
	c-0.011-3.408-0.488-7.322,1.812-9.973l7.252,4.534l-1.812,10.425L62.536,148.764z"/>
<path fill="#FBFCF4" d="M19.946,167.816c2.917-0.327,4.849-2.347,7.429-3.432c3.13-1.313,7.497-0.662,10.912-0.662
	c3.307,0,7.403,0.551,10.352-0.498c3.053-1.082,4.849-3.336,7.497-4.771c2.196-1.189,4.329-3.081,6.78-4.081
	c2.004-0.817,6.827-3.48,7.875-5.062c1.049-1.58,3.722-4.677,4.101-4.739c0-2.35,1.282-4.764,1.62-7.214
	c0.042-0.301,0.104-0.607,0.156-0.911c-1.074-3.833-3.089-7.102-7.086-8.775c-2.56-1.072-4.973-0.543-3.265,2.585
	c0.851,1.565,3.39,2.419,4.111,4.047c1.241,2.798-1.002,8.628-5.493,10.513c-4.49,1.887-6.764,4.36-10.481,5.157
	c-4.06,0.869-7.823,2.474-12.085,2.868c-4.537,0.418-8.519,0.371-12.766,1.514c-3.405,0.916-6.188,2.977-9.157,5.118
	c-3.188,2.292-6.084,3.959-10.03,4.249c-2.954,0.216-4.501,0.82-5.404,2.09c1.48,0.441,3.058,0.324,4.574,0.778
	C12.725,167.528,16.349,168.221,19.946,167.816z"/>
<linearGradient id="ian_symbols_52ae41d747db500469da54a2cb5607c7" gradientUnits="userSpaceOnUse" x1="77.1079" y1="216.0313" x2="141.9253" y2="216.0313">
	<stop  offset="0" style="stop-color:#BA882C"/>
	<stop  offset="1" style="stop-color:#90521C"/>
</linearGradient>
<path fill="url(#ian_symbols_52ae41d747db500469da54a2cb5607c7)" d="M117.605,287.909c0.005-3.618-1.677-6.396-3.162-9.516c-1.329-2.787-2.269-5.627-4.07-8.259
	c-4.164-6.079-2.98-13.207-6.074-19.732c-2.471-5.212-6.12-10.474-10.009-15.078c-2.159-2.557-2.912-5.433-4.745-8.036
	c-0.872-1.238-2.051-2.186-2.897-3.396c-1.002-1.428-1.261-2.834-1.833-4.319c-0.55-1.43-1.521-2.629-1.874-4.182
	c-0.431-1.918,0.187-3.958-0.088-5.892c-0.254-1.76-0.42-3.626-0.669-5.44c-0.275-2.012-1.635-3.299-2.419-5.085
	c-2.928-6.687-0.571-13.835-1.667-20.75c-0.566-3.535-1.573-6.977-0.556-10.437c0.856-2.926,1.064-6.22,3.572-8.712
	c2.367-2.352,4.174-4.827,6.453-7.141c2.596-2.632,5.508-3.642,8.976-4.871c3.12-1.104,6.873-3.323,10.533-2.843
	c3.317,0.437,4.418,4.451,5.783,6.809c1.459,2.507,3.665,5.599,4.101,8.259c0.561,3.445,0.603,6.848,1.158,10.323
	c0.545,3.435,2.305,6.334,3.177,9.495c0.96,3.483,1.537,6.65,3.058,9.993c0.711,1.57,0.633,3.227,0.628,4.989
	c-0.005,1.998,0.54,3.509,0.529,5.438c-0.031,3.776,0,7.556,0,11.333c0,2.892,0.067,5.77,0.529,8.609
	c0.41,2.539,1.386,4.52,2.497,6.902c2.279,4.874,6.048,9.318,7.642,14.403c1.599,5.1,2.705,9.948,3.676,15.41
	c0.457,2.59,0.612,5.643,0.96,8.135c0.218,1.511,0.332,3.094,0.529,4.553c0.161,1.188,0.805,2.954,0.499,4.08L117.605,287.909z"/>
<path fill="#F2F8F4" d="M84.396,193.625c0.197-1.456,1.09-2.812,1.475-4.169c0.54-1.892-0.488-3.675-0.421-5.326
	c0.068-1.685,1.526-2.445,2.264-3.992c0.752-1.586,0.981-3.205,0.908-5.085c-0.114-3-4.864-6.671-2.502-9.428
	c0.95-1.105,2.03-1.557,2.886-2.912c0.924-1.461,1.884-2.398,3.188-3.613c0.769-0.711,0.654-1.071,1.817-1.599
	c0.909-0.413,1.858-0.493,2.658-0.908c1.775-0.916,2.273-2.746,3.545-3.762c2.897-2.31,7.413-1.225,10.658-0.542
	c1.173,0.246,2.066,0.26,2.824,0.125c-0.291-0.476-0.576-0.94-0.836-1.384c-1.365-2.357-2.466-6.372-5.783-6.809
	c-3.66-0.48-7.413,1.739-10.533,2.843c-3.468,1.229-6.38,2.239-8.976,4.871c-2.279,2.313-4.085,4.789-6.453,7.141
	c-2.507,2.492-2.715,5.786-3.572,8.712c-1.018,3.46-0.01,6.901,0.556,10.437c1.095,6.915-1.262,14.063,1.667,20.75
	c0.654,1.487,1.697,2.637,2.186,4.14C85.258,202.035,84.08,195.945,84.396,193.625z"/>
<linearGradient id="ian_symbols_e988e8863c4016944d6139ca9f51d78e" gradientUnits="userSpaceOnUse" x1="69.5537" y1="310.8047" x2="-10.0013" y2="192.8595">
	<stop  offset="0" style="stop-color:#88653A"/>
	<stop  offset="0.6303" style="stop-color:#C6A14F"/>
</linearGradient>
<path fill="url(#ian_symbols_e988e8863c4016944d6139ca9f51d78e)" d="M57.064,318.564c-0.696-1.506-2.627-2.845-3.987-3.909c-2.035-1.589-3.395-2.99-5.098-4.942
	c-2.689-3.078-5.363-5.949-8.503-8.487c-3.364-2.726-6.681-4.138-10.175-6.105c-2.83-1.589-8.208-9.489-9.485-9.588
	c-4.007,0.052-9.869-2.949-11.307-7.05c-1.069-3.053,0.39-5.119-1.516-7.87c-1.588-2.284-3.255-4.185-4.096-6.915
	c-0.727-2.362-0.701-5.005-1.344-7.527c-0.654-2.596-1.36-5.238-1.339-8.141c0.042-5.544,0.213-10.283,1.895-15.111
	c1.848-5.324,1.937-10.271-0.005-15.335c-1.739-4.529-2.497-9.841-1.905-15.125c0.457-4.047,3.016-9.609,4.926-13.43
	c1.921-3.845,5.28-8.275,8.182-11.522c4.74-5.316,6.339,1.132,8.156,5.082c1.983,4.319,2.705,8.989,3.245,13.752
	c0.597,5.295-0.55,11.823,0.628,17.048c0.898,3.964,4.153,7.894,6.308,11.372c2.341,3.784,4.796,8.517,5.3,13.051
	c0.301,2.684,0.067,5.448,0.799,8.023c0.633,2.227,2.56,4.06,3.265,6.271c1.339,4.194,3.702,8.021,4.74,12.256
	c1.126,4.59,2.041,9.085,3.909,13.581c4.693,11.286,12.428,25.837,13.108,32.632C63.444,317.375,57.064,318.564,57.064,318.564z"/>
<path fill="#F4F9F1" d="M17.076,279.432c-1.194-2.476-3.042-2.103-2.601-5.586c0.286-2.247,1.459-4.672,0.203-6.966
	c-1.049-1.921-2.917-3.474-4.111-5.426c-1.132-1.843-1.703-3.991-2.191-5.949c-1.308-5.248,0.649-9.225,2.077-14.239
	c0.592-2.068,1.095-4.706,1.339-6.821c0.27-2.394,1.298-5.825,0.701-8.21c-1.23-4.891-5.519-7.302-5.477-12.883
	c0.037-5.334,0.909-9.472,2.077-14.239c0.769-3.12,3.483-10.896,6.629-12.407c3.141-1.509,3.551-3.873,4.755-6.004
	c0.036-0.063,0.062-0.125,0.099-0.188c-1.537-3.67-3.302-7.457-7.268-3.008c-2.902,3.247-6.261,7.678-8.182,11.522
	c-1.91,3.82-4.47,9.383-4.926,13.43c-0.592,5.284,0.166,10.596,1.905,15.125c1.941,5.063,1.853,10.011,0.005,15.335
	c-1.682,4.828-1.853,9.567-1.895,15.111c-0.021,2.902,0.685,5.545,1.339,8.141c0.644,2.522,0.618,5.165,1.344,7.527
	c0.841,2.73,2.508,4.631,4.096,6.915c1.905,2.751,0.446,4.817,1.516,7.87c1.028,2.938,4.335,5.311,7.605,6.396
	C17.263,283.455,17.792,280.917,17.076,279.432z"/>
<linearGradient id="ian_symbols_38757e5e328a30d40121d1230bf517fc" gradientUnits="userSpaceOnUse" x1="302.1631" y1="63.9756" x2="389.3809" y2="63.9756">
	<stop  offset="0" style="stop-color:#A98446"/>
	<stop  offset="0.6303" style="stop-color:#C6A14F"/>
</linearGradient>
<path fill="url(#ian_symbols_38757e5e328a30d40121d1230bf517fc)" d="M312.01,85.303c1.121-3.021-0.582-6.72-7.236-8.274c-6.661-1.553,1.188-10.297,4.054-14.84
	c2.73-4.327,8.69-8.161,13.519-11.728c5.181-3.828,14.416-5.518,21.409-6.668c8.155-1.342,23.568-1.985,28.484,0.836
	s-3.177,2.848-0.717,5.187c2.466,2.341,7.237,2.04,10.206,3.006c3.837,1.248,5.114,3.312,7.652,5.287l-4.241,14.278L312.01,85.303z"
	/>
<linearGradient id="ian_symbols_b24f7a1cd1f85bf449facb30cc61b925" gradientUnits="userSpaceOnUse" x1="257.3779" y1="10.0845" x2="313.8542" y2="330.3778">
	<stop  offset="0" style="stop-color:#DFD197"/>
	<stop  offset="0.3697" style="stop-color:#916C3A"/>
	<stop  offset="0.6242" style="stop-color:#55282B"/>
	<stop  offset="1" style="stop-color:#401E2F"/>
</linearGradient>
<path fill="url(#ian_symbols_b24f7a1cd1f85bf449facb30cc61b925)" d="M268.086,338.447c0.244-0.67-4.937-1.023-6.271-1.21c-2.803-0.379-4.174-1.246-6.629-2.356
	c-5.01-2.274-6.837-5.296-7.512-10.71c-1.386-11.109,2.118-22.053,0.732-33.313c-0.69-5.617-2.077-10.554-2.077-16.316
	c0-5.581-0.146-11.38-0.68-16.996c-0.498-5.27-2.056-10.347-2.684-15.673c-0.239-2.035-1.002-4.706-1.428-6.73
	c-0.582-2.73-0.26-5.34-0.613-8.229c-0.654-5.422-0.524-10.258,0.665-15.584c0.504-2.267,1.173-5.321,1.376-7.46
	c0.259-2.713-1.376-6.201-2.227-8.722c-1.521-4.501-3.219-9.887-2.585-15.109c0.607-4.955,2.938-9.523,5.306-13.599
	c2.326-4.002,4.028-7.061,7.616-10.367c3.463-3.195,7.953-7.026,10.725-10.894c5.897-8.249,6.287-17.954,6.287-28.368
	c0-5.646-0.291-11.304,1.194-16.47c0.742-2.593,1.604-4.789,2.17-7.361c0.524-2.414,0.852-4.957,1.396-7.441
	c1.038-4.737,3.41-9.259,5.284-13.752c1.729-4.14,2.154-10.717,1.511-15.482c-1.318-9.791-4.9-17.202-6.115-27.198
	c-0.69-5.682-4.013-10.471-0.166-14.445c3.286-3.403,5.97-6.214,10.195-8.158c4.646-2.139,8.644-2.442,13.799-3.198
	c2.477-0.361,4.604-1.394,7.444-1.394c3.068,0,5.503,0.462,8.119,1.547c3.723,1.544,7.715,5.116,9.423,8.786
	c1.946,4.179,1.666,9.703,2.834,14.144c2.788,10.564-7.014,16.394-10.876,25.134c-4.111,9.305-4.304,20.101-0.493,29.764
	c1.957,4.961,5.207,8.885,5.27,14.447l-12.236,64.588L268.086,338.447z"/>
<linearGradient id="ian_symbols_c98efd27e103e9847953c77b1076bc86" gradientUnits="userSpaceOnUse" x1="268.4082" y1="143.3545" x2="279.2365" y2="19.5865">
	<stop  offset="0" style="stop-color:#865937"/>
	<stop  offset="0.9273" style="stop-color:#C6A14F"/>
</linearGradient>
<path fill="url(#ian_symbols_c98efd27e103e9847953c77b1076bc86)" d="M268.086,143.326c0.343-2.098-2.793-7.629-3.4-9.484c-0.846-2.585-1.563-4.839-1.89-7.512
	c-0.644-5.368-0.83-10.65-0.83-16.319c0-5.578-0.509-11.485,0.15-16.996c0.592-4.896,2.699-9.428,3.286-14.242
	c0.664-5.467-0.338-11.18-0.717-16.353c-0.192-2.622-0.42-4.488-0.15-6.949c0.307-2.782,0.171-6.004,0.8-8.724
	c0.456-2.009,1.572-4.049,2.071-6.082c0.644-2.629,0.685-5.249,0.68-8.158c-0.005-2.765,0.338-12.797,3.4-13.599L287.122,63.1
	l-10.875,21.757l-3.4,28.555L268.086,143.326z"/>
<linearGradient id="ian_symbols_c448d26c3aa47e647d35f0f297eced26" gradientUnits="userSpaceOnUse" x1="246.8018" y1="86.9961" x2="303.418" y2="214.1582">
	<stop  offset="0" style="stop-color:#DFD197"/>
	<stop  offset="0.3697" style="stop-color:#916C3A"/>
	<stop  offset="1" style="stop-color:#55282B"/>
</linearGradient>
<path fill="url(#ian_symbols_c448d26c3aa47e647d35f0f297eced26)" d="M288.254,68.54c0,0-2.715,14.505-0.903,23.568c1.813,9.064,0,47.138,0,47.138l-25.385,93.368
	c0,0-3.624-32.179-2.721-41.696c0.908-9.519,5.897-25.838,7.709-34.447c1.812-8.612,1.132-13.145,1.132-13.145l5.664-18.131
	l-0.903-23.568l4.983-17.677L288.254,68.54z"/>
<path fill="#FFFEF7" d="M247.892,181.6c1.771-1.265,2.092-5.174,2.497-7.017c1.173-5.267,1.526-9.692,4.631-14.429
	c2.439-3.723,6.458-6.022,9.173-9.841c2.414-3.4,5.353-6.577,7.122-10.391c2.171-4.661,3.811-8.589,4.911-13.611
	c0.582-2.643,0.758-4.091-0.171-6.593c-0.991-2.671-1.168-4.587-1.168-7.668c0-2.704-0.192-5.066,0.83-7.478
	c1.023-2.425,2.279-4.189,2.586-6.782c0.312-2.685-0.26-5.482-0.021-8.177c0.275-3.047,1.313-3.925,3.214-6.253
	c2.97-3.637,5.907-7.543,7.153-11.935c0.67-2.347,1.277-4.249,1.194-6.967c-0.094-3.048-3.385-21.498-4.08-24.475
	c-2.071-8.849-11.784-18.071-1.226-25.022c1.578-1.041,3.951-1.589,5.814-2.344c2.149-0.869,4.044-2.497,6.286-3.229
	c3.821-1.246,10.103-3.776,14.146-1.225c5.119,3.227,4.979,13.074,5.592,18.222c0.612,5.186,2.071,9.931,5.772,13.375
	c2.627-3.907,4.438-8.034,3.026-13.373c-1.168-4.441-0.888-9.964-2.834-14.144c-1.708-3.67-5.7-7.242-9.423-8.786
	c-2.616-1.085-5.051-1.547-8.119-1.547c-2.84,0-4.968,1.033-7.444,1.394c-5.155,0.755-9.152,1.059-13.799,3.198
	c-4.226,1.944-6.909,4.755-10.195,8.158c-3.847,3.974-0.524,8.763,0.166,14.445c1.215,9.996,4.797,17.407,6.115,27.198
	c0.644,4.766,0.218,11.343-1.511,15.482c-1.874,4.493-4.246,9.015-5.284,13.752c-0.545,2.484-0.872,5.027-1.396,7.441
	c-0.566,2.572-1.428,4.769-2.17,7.361c-1.485,5.166-1.194,10.824-1.194,16.47c0,10.414-0.39,20.119-6.287,28.368
	c-2.771,3.867-7.262,7.698-10.725,10.894c-3.587,3.307-5.29,6.365-7.616,10.367c-0.395,0.68-0.784,1.378-1.168,2.084
	c0.083,3.513,0.363,6.892,1.318,10.154C244.18,180.623,245.203,183.522,247.892,181.6z"/>
<path fill="#FFFBED" d="M381.729,52.821c-2.969-0.966-7.74-0.665-10.206-3.006c-2.46-2.339,5.633-2.365,0.717-5.187
	s-20.329-2.178-28.484-0.836c-6.993,1.15-16.229,2.84-21.409,6.668c-4.828,3.566-10.788,7.4-13.519,11.728
	c-2.865,4.543-10.715,13.287-4.054,14.84c6.654,1.555,8.357,5.253,7.236,8.274l6.889-1.217c-0.114-1.42-0.467-2.801-1.329-4.156
	c-1.033-1.635-3.26-2.533-4.714-3.979c-3.561-3.538-1.594-7.525,1.604-10.768c1.563-1.586,3.753-2.878,5.326-4.479
	c1.692-1.724,3.234-3.424,5.492-4.88c4.382-2.827,9.796-5.243,15.554-6.774c5.596-1.485,12.667-2.521,18.646-1.576
	c2.555,0.405,4.568,1.503,5.187,3.141c0.509,1.363,1.028,3.1,3.188,3.803c2.419,0.795,5.155,0.984,7.631,1.708
	c1.994,0.584,4.128,0.955,6.168,1.428c2.444,0.565,4.184,1.215,6.178,2.3c0.301,0.163,0.57,0.423,0.825,0.703l0.727-2.447
	C386.843,56.133,385.565,54.069,381.729,52.821z"/>
<linearGradient id="ian_symbols_2ee700cda710c0f46d03bbbbf43229a4" gradientUnits="userSpaceOnUse" x1="88.9507" y1="249.167" x2="251.8525" y2="412.0688">
	<stop  offset="0.0424" style="stop-color:#B19C66"/>
	<stop  offset="0.2788" style="stop-color:#AD9561"/>
	<stop  offset="0.5152" style="stop-color:#8E6434"/>
	<stop  offset="1" style="stop-color:#522C30"/>
</linearGradient>
<path fill="url(#ian_symbols_2ee700cda710c0f46d03bbbbf43229a4)" d="M77.108,442.153c-1.085-1.09-2.087-2.325-3.39-3.042c-1.708-0.944-4.033-0.669-5.591-1.583
	c-4.574-2.684-1.822-6.604-2.975-10.611c-1.095-3.811-5.383-5.918-5.788-10.04c-0.343-3.473,0.716-2.522,2.902-3.566
	c1.796-0.852,2.362-1.412,2.886-3.566c1.007-4.122,0.773-6.499,3.728-9.899c2.253-2.591,3.468-6.09,5.56-8.784
	c2.207-2.834,5.357-4.636,6.593-8.462c4.672-2.154,9.271-5.627,11.888,1.454c0.888,2.398,3.556,11.312,8.067,9.926
	c2.596-0.795,1.978-4.584,1.417-6.5c-0.659-2.247-2.269-4.137-3.068-6.255c-1.817-4.828-0.182-11.603,0.358-16.529
	c0.26-2.362,0.914-5.337,0.571-8.047c-0.353-2.829-1.807-5.3-2.201-7.854c-0.374-2.398-0.317-5.887,0.934-7.745
	c2.269-3.38,5.02-0.945,7.74-2.295c5.659-2.798-16.399-16.731-7.74-23.517c2.409-1.885,6.136-0.482,9.137-0.903
	c2.809-0.384,6.396-1.868,9.215-1.536c0.639-2.876-0.81-4.138-2.035-6.35c-1.583-2.834-0.825-4.797-1.422-7.9
	c-1.043-5.379-5.653-8.431-2.009-14.168c1.65-2.601,2.04-2.85,1.256-5.871c-0.893-3.432-0.716-3.852,2.009-5.918
	c1.827-1.381,2.59-3.042,4.267-4.34c1.822-1.401,5.057-1.625,6.489-3.546c2.855-3.852-0.063-10.372,5.004-12.926
	c2.056-1.039,4.361-1.018,6.432-2.176c2.087-1.163,3.852-2.325,5.934-3.379c4.641-2.357,10.341-2.799,12.226,2.823
	c0.935,2.788,0.249,3.79,2.834,5.778c2.149,1.656,4.781,1.661,7.008,3.026c3.016,1.849,5.814,10.777,10.092,9.786
	c0.789-2.409-1.916-6.059-3.478-7.792c-1.578-1.739-5.191-2.015-6.313-4.444c-0.561-1.22-0.167-3.4-0.301-4.724
	c-0.109-1.033-0.836-2.851-1.101-3.915c-0.69-2.834-3.193-4.303-3.774-6.979c-0.675-3.073-0.971-5.438-2.315-8.443
	c-1.069-2.398-2.777-4.275-4.319-6.433c-3.135-4.386-6.956-8.49-6.131-14.416c4.942-0.449,1.63-11.47,3.442-14.481
	c0.462-0.766,1.542-1.206,2.326-1.975c1.137-1.113,1.158-0.969,1.973-2.334c1.375-2.308,1.854-4.628,2.73-7.146
	c0.789-2.264,0.603-4.656,2.113-6.652c1.48-1.957,3.759-2.259,5.415-3.909c2.922-2.92,5.419-6.91,8.944-9.539
	c3.649-2.718,8.831-4.878,13.066-6.453c4.06-1.511,11.037-4.337,15.631-2.687c10.476,3.767,5.368,20.392,7.356,28.5
	c1.194,4.875,4.081,9.482,5.555,14.362c0.763,2.528,0.758,5.03,1.038,7.728c0.265,2.593,1.688,5.251,2.004,8.046
	c0.675,5.921,2.139,11.139,2.139,17.209c0,6.162,0.903,11.346,1.427,17.207c0.919,10.279,4.776,18.383,8.607,27.935
	c2.04,5.087,3.587,9.967,4.304,15.097c0.794,5.721,0,12.137,0,17.925c0,5.124-0.701,11.224,0.561,15.928
	c1.189,4.433,2.232,9.043,3.898,13.311c3.613,9.251,1.942,21.071,3.987,30.991c0.971,4.714,3.151,8.478,4.459,12.906
	c0.649,2.19,1.189,4.89,1.454,7.153c0.229,1.952,1.319,6.038,0.556,7.761c-1.781,4.029-7.667,6.328-11.328,6.599
	c-6.717,0.493-6.25,3.411-8.727,8.482c-5.238,0.114-6.515,7.268-7.61,11.031c-1.298,4.454-3.613,8.052-5.716,12.216
	c-2.232,4.418-2.943,8.846-4.641,13.289c-2.165,5.675-4.916,7.3-9.879,10.196c-3.764,2.196-7.833,7.242-12.189,7.922
	c-5.612,0.872-10.959-0.28-13.622-5.093c-2.44-4.412-1.443-9.375-4.106-13.788c-3.193-5.295-7.574-4.132-13.119-4.802
	c-3.877-0.473-6.743-1.91-10.725-0.758c-3.852,1.121-6.048,4.511-7.901,7.911c-2.647,4.859-5.918,14.276-11.639,16.332
	c-8.503,3.047-10.326-9.567-16.493-11.867c-3.447-1.288-8.851-1.381-12.745-0.894c-2.985,0.369-8.571,2.492-12.906-1.417
	C83.01,448.819,79.641,444.697,77.108,442.153z"/>
<path fill="#FEFDF3" d="M68.106,425.609c6.281-1.246,4.36-9.303,4.879-13.768c0.577-4.932,2.674-8.976,7.346-11.297
	c1.978-0.98,4.87-1.168,6.495-2.829c2.128-2.18,0.467-4.937,1.936-7.387c0.903-1.501,3.494-2.445,5.01-3.914
	c-0.369-0.981-0.654-1.833-0.851-2.362c-2.617-7.081-7.216-3.608-11.888-1.454c-1.236,3.826-4.387,5.628-6.593,8.462
	c-2.092,2.694-3.307,6.193-5.56,8.784c-2.954,3.4-2.72,5.777-3.728,9.899c-0.524,2.154-1.09,2.715-2.886,3.566
	c-2.186,1.044-3.25,0.094-2.902,3.566c0.41,4.122,4.693,6.229,5.788,10.04c1.152,4.008-1.599,7.928,2.975,10.611
	c0.452,0.265,0.966,0.421,1.511,0.55C69.415,433.806,67.473,429.934,68.106,425.609z"/>
<path fill="#F8FCFA" d="M103.693,352.328c0.986,2.611-0.8,6.085,0.109,8.654c0.773,2.186,2.466,2.477,2.902,4.989
	c0.426,2.46,0.005,5.383,0.005,7.885c0,5.814,0.893,10.154,7.761,9.194c1.35-2.84,0.431-3.078-0.773-5.436
	c-1.277-2.492-1.272-4.257-1.256-7.346c0.021-2.605-0.503-4.199-1.433-6.453c-1.09-2.642-1.417-4.127-1.433-7.169
	c-0.016-2.569,1.059-4.267,0-6.452c-0.914-1.875-2.772-3.017-3.608-5c-0.981-2.325,0.333-4.064-0.114-6.131
	c-2.424,0.571-4.833-1.033-6.853,1.983c-0.763,1.137-1.074,2.871-1.126,4.594c0.794,0.607,1.558,1.215,2.201,1.859
	C101.32,348.746,103.064,350.651,103.693,352.328z"/>
<path fill="#E7E7DF" d="M107.581,324.223c2.554,0.706,5.181,0.945,7.709,1.609c2.294,0.597,6.162,2.056,8.644,1.433
	c4.241-1.074,7.117-7.626,7.148-11.493c0.026-3.474-2.009-3.427-3.779-5.539c-2.071-2.472-0.909-5.57-1.36-8.675
	c-1.739-0.67-3.556-1.713-5.502-1.667c-0.467-1.521,0.618-3.8,0.607-5.632c-0.011-2.196,0.01-3.801-0.716-5.736
	c-0.592-1.568-2.134-3.136-1.485-5.031c0.607-1.785,3.302-2.559,4.527-4.272c1.308-1.816,1.796-3.545,1.973-5.752
	c0.202-2.527-0.374-5.32,2.689-3.4c1.199,0.748,1.771,2.835,2.492,3.956c1.085,1.688,2.144,2.389,3.629,3.546
	c2.398,1.879,7.268,4.402,9.677,0.773c2.45-3.686-3.323-5.44-5.534-7.189c-2.134-1.678-6.681-7.144-3.836-10.087
	c2.378-2.461,8.446-0.566,11.556-2.066c-0.561-6.001,5.959-4.641,10.341-6.619c-0.312-0.888-0.363-1.858-0.856-3.333
	c-1.884-5.622-7.584-5.181-12.226-2.823c-2.082,1.054-3.847,2.216-5.934,3.379c-2.071,1.158-4.376,1.137-6.432,2.176
	c-5.067,2.554-2.149,9.074-5.004,12.926c-1.433,1.921-4.667,2.145-6.489,3.546c-1.677,1.298-2.44,2.959-4.267,4.34
	c-2.726,2.066-2.902,2.486-2.009,5.918c0.784,3.021,0.395,3.271-1.256,5.871c-3.645,5.737,0.965,8.789,2.009,14.168
	c0.597,3.104-0.161,5.066,1.422,7.9c1.225,2.212,2.674,3.474,2.035,6.35c-2.819-0.332-6.406,1.152-9.215,1.536
	c-3,0.421-6.728-0.981-9.137,0.903c-3.348,2.627-2.097,6.313,0.358,10.02C102.016,324.644,104.643,323.413,107.581,324.223z"/>
<path fill="#EFF4F0" d="M155.626,207.657c0.223-1.602-0.042-5.591,0.701-7.188c0.649-1.404,3.151-2.752,4.319-3.566
	c1.962-1.381,2.549-1.993,3.603-4.288c2.066-4.501,1.983-7.728,5.736-11.471c2.938-2.933,4.091-7.644,7.169-10.037
	c3.686-2.857,8.69-3.047,13.446-3.047c2.917,0,4.298-0.019,6.614-1.274c1.75-0.95,3.229-2.941,5.02-3.582
	c2.242-0.803,4.76,0.648,6.853,1.448c0.212,0.083,0.503,0.163,0.835,0.244c-0.623-4.366-2.305-8.044-6.577-9.581
	c-4.594-1.65-11.572,1.176-15.631,2.687c-4.236,1.575-9.417,3.735-13.066,6.453c-3.525,2.629-6.022,6.619-8.944,9.539
	c-1.656,1.65-3.935,1.952-5.415,3.909c-1.51,1.996-1.324,4.389-2.113,6.652c-0.877,2.518-1.355,4.838-2.73,7.146
	c-0.815,1.365-0.836,1.221-1.973,2.334c-0.784,0.769-1.864,1.209-2.326,1.975c-1.812,3.012,1.5,14.032-3.442,14.481
	c-0.54,3.873,0.909,6.964,2.85,9.866c1.692-2.528,3.224-5.653,3.478-6.442C154.749,211.698,155.289,210.092,155.626,207.657z"/>
<linearGradient id="ian_symbols_027ebf2ba582b5346d07684a8f244391" gradientUnits="userSpaceOnUse" x1="158.9536" y1="400.1855" x2="231.29" y2="400.1855">
	<stop  offset="0" style="stop-color:#623130"/>
	<stop  offset="1" style="stop-color:#542225"/>
</linearGradient>
<path fill="url(#ian_symbols_027ebf2ba582b5346d07684a8f244391)" d="M219.106,396.797c-2.881-5.43,0.01-10.875-0.649-16.378c-3.759-0.483-8.114,0.836-11.4-1.35
	c-3.083-2.046-3.234-4.771-4.443-7.923c-1.179-3.083-2.684-5.279-5.56-7.33c-2.923-2.087-4.999-3-6.629-6.275
	c-1.697-3.411-2.663-7.471-6.987-7.346c-3.811,0.108-5.97,3.478-10.045,3.582c-5.041,0.129-6.401,0-9.858,3.639
	c-1.692,1.78-5.508,4.382-4.371,7.725c4.854-0.291,11.047,1.396,13.513,5.846c2.196,3.977,2.819,8.773,4.143,13.066
	c1.775,5.736,2.347,10.892,8.083,14.006c2.32,1.257,4.21,2.19,6.593,2.871c1.739,0.493,4.112,1.126,5.399,2.486
	c3.208,3.4,1.599,11.909,1.599,16.327c0,4.979-0.602,10.585,1.594,14.883c2.741,5.379,8.093,10.222,12.09,15.554
	c0.167-0.379,0.333-0.769,0.493-1.189c1.698-4.443,2.409-8.871,4.641-13.289c2.103-4.164,4.418-7.762,5.716-12.216
	c1.095-3.764,2.373-10.917,7.61-11.031c0.244-0.503,0.452-0.981,0.654-1.438c-0.675-0.862-1.381-1.708-2.149-2.55
	C225.6,404.584,221.603,401.506,219.106,396.797z"/>
<linearGradient id="ian_symbols_cded338a93ec1a94e9372160e0d967ae" gradientUnits="userSpaceOnUse" x1="339.2979" y1="287.7686" x2="359.1737" y2="60.5861">
	<stop  offset="0.0182" style="stop-color:#3F202F"/>
	<stop  offset="0.2485" style="stop-color:#5B3F36"/>
	<stop  offset="0.5333" style="stop-color:#957858"/>
	<stop  offset="0.8" style="stop-color:#A28761"/>
	<stop  offset="0.9697" style="stop-color:#BDB07F"/>
</linearGradient>
<path fill="url(#ian_symbols_cded338a93ec1a94e9372160e0d967ae)" d="M304.119,141.061c0-1.814-0.006-3.627,0-5.44c0.005-2.062-0.54-3.562-1.008-5.44
	c-0.877-3.552-1.796-7.227-2.632-10.876c-1.619-7.079-2.009-14.63-1.801-22.209c0.176-6.294,4.309-13.622,10.403-15.535
	c3.509-1.103,7.418-0.929,10.891-1.7c3.826-0.851,6.069-3.441,9.163-5.757c2.782-2.076,6.842-4.091,10.336-4.202
	c1.775-0.058,3.421,0.299,4.963,0.475c2.046,0.234,3.354,0.966,5.362,1.436c3.474,0.815,7.034-0.119,10.523-0.099
	c3.649,0.021,6.92-1.323,10.429-1.835c1.849-0.272,3.608-0.496,5.436-0.896c1.879-0.407,3.535-1.044,5.44-1.791
	c1.563-0.615,2.928-1.555,4.532-2.165c1.962-0.742,3.857-0.415,5.892-0.667c3.438-0.423,7.31-0.382,10.876,0.104
	c2.741,0.372,6.723,1.091,8.514,3.726c2.503,3.681-2.518,8.329-3.524,11.683c-1.262,4.189-1.578,10.134-0.452,14.515
	c0.504,1.976,0.972,3.847,1.459,5.882c0.28,1.176,0.649,2.331,0.903,3.525c0.244,1.129,0.182,2.453,0.358,3.725
	c0.321,2.344,0.451,4.711,0.451,7.255c0,2.336-0.581,5.583,0.452,7.704l-15.413,64.815l-15.859,67.534l-54.39,31.729l-13.602-11.333
	L304.119,141.061z"/>
<path fill="#FFFBED" d="M411.438,68.188c-1.791-2.635-5.772-3.354-8.514-3.726c-3.566-0.485-7.438-0.526-10.876-0.104
	c-2.034,0.252-3.93-0.075-5.892,0.667c-1.604,0.61-2.97,1.55-4.532,2.165c-1.905,0.747-3.562,1.384-5.44,1.791
	c-1.827,0.399-3.587,0.623-5.436,0.896c-3.509,0.512-6.779,1.855-10.429,1.835c-3.489-0.021-7.05,0.914-10.523,0.099
	c-2.009-0.47-3.316-1.201-5.362-1.436c-1.542-0.176-3.188-0.532-4.963-0.475c-3.494,0.111-7.554,2.126-10.336,4.202
	c-3.094,2.315-5.337,4.906-9.163,5.757c-3.473,0.771-7.382,0.598-10.891,1.7c-6.095,1.913-10.228,9.241-10.403,15.535
	c-0.13,4.87-0.016,9.727,0.514,14.455c0.26-1.357,0.374-2.759,0.498-3.93c0.327-3.174,1.501-6.611,2.741-9.495
	c1.08-2.504,3.676-5.173,6.209-6.017c3.13-1.043,6.115-2.383,9.188-3.515c5.409-1.988,7.948-8.316,13.487-9.63
	c3.354-0.797,6.255-1.359,9.967-1.359c3.66,0,7.715,0.501,11.333-0.003c4.745-0.656,9.843-1.516,14.505-2.691
	c4.692-1.184,9.1-3.94,13.699-4.911c2.544-0.54,5.124-0.551,7.605-1.007c2.439-0.449,4.656-0.911,7.247-0.906
	c2.606,0.005,4.979-0.556,7.242,0.013c0.888,0.224,2.471,0.197,3.094,0.986c0.421,0.532,0.426,3.11,0.634,3.909
	c1.193,0.231,2.242,1.503,3.426,2.001c0.104,0.045,0.238,0.089,0.379,0.133C411.808,72.781,412.893,70.323,411.438,68.188z"/>
<linearGradient id="ian_symbols_cd75dabfa02b886471cffd29051d9cd3" gradientUnits="userSpaceOnUse" x1="375.4463" y1="106.0938" x2="445.9873" y2="106.0938">
	<stop  offset="0" style="stop-color:#A98446"/>
	<stop  offset="0.6303" style="stop-color:#C6A14F"/>
</linearGradient>
<path fill="url(#ian_symbols_cd75dabfa02b886471cffd29051d9cd3)" d="M376.637,101.627c-2.3-1.744-0.706-7.813,0.129-9.846c1.158-2.826,2.232-5.871,4.532-8.171
	c2.425-2.427,5.093-3.286,8.482-3.286c1.646,0,3.862,0.4,5.451,0.011c1.651-0.405,2.601-2.012,4.521-2.287
	c4.106-0.589,6.926,1.124,10.44,2.264c3.177,1.033,6.66,2.442,9.957,3.515c3.255,1.059,6.598,2.494,9.521,4.202
	c3.504,2.048,3.607,4.524,4.055,8.182c0.368,3.055,0.592,6.735,1.951,9.484c1.537,3.109,3.899,6.001,5.233,9.179
	c0.617,1.469,1.012,3.322,1.464,4.895c0.436,1.511,1.168,3.31,1.354,4.974c0.197,1.727,0.576,2.934,0.909,4.524
	c0.342,1.646,1.11,3.372,1.35,4.994l-38.525-30.821L376.637,101.627z"/>
<path fill="#FFFBED" d="M380.82,94.375c0.717-2.406,1.999-6.863,4.418-8.172c2.896-1.563,7.6,0.094,10.892-0.431
	c1.702-0.27,2.424-1.201,3.737-2.162c1.376-1.004,2.777-1.262,4.423-1.472c3.411-0.438,5.736,2.469,8.607,3.624
	c3.006,1.207,6.344,2.073,9.531,3.063c2.611,0.808,6.137,2.196,7.818,4.519c2.227,3.074,0.654,6.251,0.332,9.644
	c-0.233,2.411,0.82,4.158,2.149,6.006c1.469,2.04,2.378,3.829,3.286,6.229c0.981,2.602,0.908,4.935,0.908,7.707
	c0,1.303,0.213,2.806,0.011,4.088l9.054,7.242c-0.239-1.622-1.008-3.349-1.35-4.994c-0.333-1.591-0.712-2.798-0.909-4.524
	c-0.187-1.664-0.919-3.463-1.354-4.974c-0.452-1.572-0.847-3.426-1.464-4.895c-1.334-3.178-3.696-6.069-5.233-9.179
	c-1.359-2.749-1.583-6.43-1.951-9.484c-0.447-3.657-0.551-6.134-4.055-8.182c-2.923-1.708-6.266-3.144-9.521-4.202
	c-3.297-1.072-6.78-2.481-9.957-3.515c-3.515-1.14-6.334-2.853-10.44-2.264c-1.921,0.275-2.87,1.882-4.521,2.287
	c-1.589,0.39-3.805-0.011-5.451-0.011c-3.39,0-6.058,0.859-8.482,3.286c-2.3,2.3-3.374,5.345-4.532,8.171
	c-0.835,2.033-2.429,8.102-0.129,9.846l3.561,0.208C380.135,99.26,380.141,96.651,380.82,94.375z"/>
<linearGradient id="ian_symbols_c8fe11a33e80ffb4ed1e912d5b1865eb" gradientUnits="userSpaceOnUse" x1="352.6846" y1="233.9365" x2="452.2888" y2="130.7933">
	<stop  offset="0.1152" style="stop-color:#5B3F36"/>
	<stop  offset="0.2788" style="stop-color:#825737"/>
	<stop  offset="0.6061" style="stop-color:#8C654B"/>
	<stop  offset="1" style="stop-color:#B2B078"/>
</linearGradient>
<path fill="url(#ian_symbols_c8fe11a33e80ffb4ed1e912d5b1865eb)" d="M479.378,170.669c-0.759-2.383-0.197-5.007-0.515-7.645c-0.285-2.367-0.659-4.542-2.569-6.269
	c-1.464-1.329-3.042-2.164-4.413-3.745c-3.058-3.522-6.017-7.992-9.37-10.873c-3.213-2.765-6.718-5.041-10.009-7.818
	c-6.479-5.464-13.149-11.709-18.356-18.359c-5.3-6.77-10.211-14.821-18.527-18.185c-4.512-1.828-9.013-2.02-13.633-3.364
	c-2.165-0.628-4.475-1.846-6.728-2.11c-2.705-0.319-5.113,0.449-7.496,0.729c-4.891,0.573-8.852,1.666-12.75,4.913
	c-3.483,2.905-6.318,7.634-6.303,12.067c0.016,5.771,0.172,11.021-1.381,16.335c-1.406,4.791-4.085,8.205-4.06,13.58
	c0.016,3.123-0.607,4.556-1.526,7.313c-0.836,2.497-0.182,4.47,0.161,6.969c0.717,5.147-0.701,10.593-2.699,14.972
	c-1.022,2.245-2.394,3.499-2.73,6.103c-0.343,2.619-0.006,5.514-0.006,8.155c0,5.636-1.173,10.237-2.004,15.64
	c-0.814,5.308-2.061,10.366-3.431,15.636c-1.319,5.072-1.36,11.068-1.36,16.316l42.148,37.393l29.917-4.08l36.033-32.633
	c1.459-4.127,5.17-5.604,8.986-7.346c2.128-0.968,5.295-1.567,7.189-3.023c1.646-1.265,1.688-4.194,2.181-5.947
	c1.24-4.438,6.702-7.612,5.472-12.952c-0.483-2.11-3.032-3.524-3.499-5.406c0.031,0.119,0.686-3.356,0.711-3.429
	c0.255-0.662,1.106-1.966,1.526-2.519c1.983-2.588,3.691-3.571,3.945-6.969c0.229-2.982-0.561-4.883-1.869-7.512
	C481.36,174.474,480.073,172.862,479.378,170.669z"/>
<linearGradient id="ian_symbols_77e1f12ea1432354dd6a1cc22cdeb9c7" gradientUnits="userSpaceOnUse" x1="340.4395" y1="216.252" x2="465.1031" y2="138.3534">
	<stop  offset="0" style="stop-color:#96804B"/>
	<stop  offset="0.3212" style="stop-color:#E1DCCD"/>
	<stop  offset="1" style="stop-color:#F9FCF7"/>
</linearGradient>
<path fill="url(#ian_symbols_77e1f12ea1432354dd6a1cc22cdeb9c7)" d="M479.378,170.669c-0.759-2.383-0.197-5.007-0.515-7.645c-0.285-2.367-0.659-4.542-2.569-6.269
	c-1.464-1.329-3.042-2.164-4.413-3.745c-3.058-3.522-6.017-7.992-9.37-10.873c-3.213-2.765-6.718-5.041-10.009-7.818
	c-6.479-5.464-13.149-11.709-18.356-18.359c-5.3-6.77-10.211-14.821-18.527-18.185c-4.512-1.828-9.013-2.02-13.633-3.364
	c-2.165-0.628-4.475-1.846-6.728-2.11c-2.705-0.319-5.113,0.449-7.496,0.729c-4.891,0.573-8.852,1.666-12.75,4.913
	c-3.483,2.905-6.318,7.634-6.303,12.067c0.016,5.771,0.172,11.021-1.381,16.335c-1.406,4.791-4.085,8.205-4.06,13.58
	c0.016,3.123-0.607,4.556-1.526,7.313c-0.836,2.497-0.182,4.47,0.161,6.969c0.717,5.147-0.701,10.593-2.699,14.972
	c-1.022,2.245-2.394,3.499-2.73,6.103c-0.343,2.619-0.006,5.514-0.006,8.155c0,5.636-1.173,10.237-2.004,15.64
	c-0.814,5.308-2.061,10.366-3.431,15.636c-1.319,5.072-1.36,11.068-1.36,16.316l20.152,17.879c0.088-0.296,0.171-0.592,0.244-0.878
	c0.695-2.798,0.825-5.477,1.506-8.165c1.344-5.319,1.89-11.4,1.89-16.994c0.005-5.664,0.005-11.33,0-16.996
	c0-5.417-1.443-9.739-2.041-14.954c-0.586-5.116-1.785-9.99-1.204-15.488c0.213-2.029,1.448-4.441,1.734-6.422
	c0.389-2.673,0.404-5.954,0.15-8.688c-0.249-2.702-1.069-5.313-0.675-8.155c0.353-2.564,0.996-4.921,1.354-7.483
	c0.363-2.613-0.462-5.453,0.156-8.005c0.498-2.071,2.019-4.109,2.585-6.256c2.461-9.365-2.258-22.351,7.61-28.417
	c3.774-2.317,9.827-3.203,14.126-3.704c5.362-0.625,10.19-0.7,14.977,1.495c6.811,3.131,14.172,10.422,17.489,17.184
	c2.02,4.127,5.316,6.557,8.177,10.18c1.193,1.517,1.858,3.535,3.042,5.116c1.614,2.168,3.862,3.439,6.115,4.778
	c5.689,3.385,9.282,7.315,12.579,13.088c1.899,3.333,2.901,5.519,6.307,7.441c3.51,1.98,5.285,3.889,5.42,8.177
	c0.146,4.464-0.083,6.231,2.549,9.689c2.389,3.141,2.685,6.476,1.698,10.195c-0.986,3.717-1.033,6.741-1.511,10.726
	c-0.203,1.695-0.598,3.434-0.847,5.271c-0.249,1.802-1.858,3.522-2.02,5.475c-0.368,0.07-2.377,2.726-2.605,4.179
	c-0.286,1.843,0.191,3.109-0.665,4.773c-0.929,1.804-3.977,5.168-5.985,5.575c-0.27,1.672-4.194,4.128-5.57,5.155
	c-2.269,1.695-4.548,3.341-6.136,5.589c-2.99,4.229-5.716,7.817-9.993,11.067c-3.598,2.721-8.426,6.422-10.196,10.726
	c-0.524,1.267-1.007,2.544-1.401,3.867l29.087-26.341c1.459-4.127,5.17-5.604,8.986-7.346c2.128-0.968,5.295-1.567,7.189-3.023
	c1.646-1.265,1.688-4.194,2.181-5.947c1.24-4.438,6.702-7.612,5.472-12.952c-0.483-2.11-3.032-3.524-3.499-5.406
	c0.031,0.119,0.686-3.356,0.711-3.429c0.255-0.662,1.106-1.966,1.526-2.519c1.983-2.588,3.691-3.571,3.945-6.969
	c0.229-2.982-0.561-4.883-1.869-7.512C481.36,174.474,480.073,172.862,479.378,170.669z"/>
<linearGradient id="ian_symbols_26201c64c158dc7479b023889029eb4b" gradientUnits="userSpaceOnUse" x1="302.8232" y1="392.5342" x2="497.6076" y2="270.8194">
	<stop  offset="0" style="stop-color:#5A2D28"/>
	<stop  offset="0.2545" style="stop-color:#67453C"/>
	<stop  offset="0.6485" style="stop-color:#8F714B"/>
	<stop  offset="0.9273" style="stop-color:#C6A14F"/>
</linearGradient>
<path fill="url(#ian_symbols_26201c64c158dc7479b023889029eb4b)" d="M402.702,249.385c1.692-1.277,3.125-6.027,3.432-8.122c0.545-3.662,0.409-7.488,1.308-10.933
	c0.903-3.447-0.052-7.283,0.665-10.895c0.628-3.172,4.334-5.103,4.91-8.005c2.373,0.208,3.992-1.7,6.152-2.006
	c2.771-0.393,5.674,0.104,8.16,0.376c5.021,0.553,10.237,1,14.655,3.024c2.098,0.963,4.122,2.4,6.266,3.397
	c2.181,1.015,4.667,2.149,6.635,3.403c4.568,2.904,9.479,5.326,13.633,8.851c3.623,3.078,6.837,7.144,8.82,11.408
	c0.965,2.071,1.583,4.08,3.036,5.929c1.568,2.004,3.811,3.431,5.135,5.647c2.637,4.408,2.217,9.573,2.175,14.92
	c-0.021,3.094,0.773,3.566,2.212,5.949c1.469,2.445,1.879,3.868,1.868,6.973c-0.021,6.8,0.369,14.1-0.529,20.542
	c-0.399,2.912-2.056,6.234-1.354,9.214c1.199,5.135,4.6,1.963,7.886,2.99c0.456,1.791,1.401,2.746,1.474,4.646
	c0.083,2.139-0.493,3.93-0.68,6.115c-0.182,2.107-0.867,3.925-0.675,6.121c0.191,2.227,0.955,3.945,1.204,6.12
	c0.441,3.748,1.599,7.859-0.695,10.704c-2.409,2.99-5.077,5.135-8.773,5.44c0.898,1.631,6.51,1.896,7.584,3.572
	c1.594,2.491,2.134,8.176,2.721,10.876c0.67,3.104-3.313,2.32-4.117,5.435c-0.685,2.638,1.771,7.352,1.396,10.201
	c-0.482,3.66-6.328,5.591-9.671,7.33c-1.926,1.002-5.077,1.137-7.361,0.867c-2.726-0.332-4.631-0.374-7.444-0.042
	c-2.632,0.312-4.771,0.473-7.325,0.836c-2.601,0.363-5.315,1.069-6.286-2.175c-0.82-2.741,0.768-5.015-1.163-7.512
	c-1.921-2.492-4.776-2.03-7.662-2.024c-2.996,0.01-4.272,0.197-5.478-2.679c-0.882-2.118-1.002-4.808-1.832-6.993
	c-1.713-4.485-3.208-9.173-8.312-10.59c-4.268-1.179-12.152-0.649-15.818,1.059c-4.246,1.978-6.784,4.423-10.014,7.662
	c-2.647,2.658-6.967,5.197-10.367,7.31c-3.717,2.311-8.093,4.475-12.085,5.591c-4.241,1.189-8.368,3.847-12.241,5.592
	c-4.272,1.926-10.486,4.277-13.799,7.823c-1.323,1.412-2.264,3.831-3.363,5.44c-1.548,2.248-3.411,2.948-5.119,4.947
	c-1.293,1.511-2.004,3.234-3.686,4.568c-2.643,2.092-4.236,2.513-7.382,2.871c-3.541,0.404-8.789,0.197-12.185,1.375
	c-2.424,0.841-9.863,5.363-11.576,2.741l-2.04-41.479l-0.676-49.629L402.702,249.385z"/>
<path fill="#FFFFFF" d="M427.776,218.795c4.34,0.565,8.653,2.959,12.433,5.246c3.981,2.414,8.229,4.854,12.199,7.48
	c7.518,4.981,15.071,9.287,21.093,16.337c1.396,1.636,2.492,3.603,3.229,5.643c0.955,2.653,0.202,5.27,0.648,8.12
	c0.395,2.543,2.414,3.867,3.618,5.934c1.257,2.154,2.347,4.531,3.4,6.831c1.573,3.422,1.184,7.097,1.173,11.037
	c-0.015,4.449,0.914,7.31-0.83,11.405c-1.401,3.286-1.78,6.682-0.358,10.175c0.686,1.698,1.656,2.985,1.885,4.932
	c0.26,2.237,0.052,3.961,0.685,6.137c1.745,6.006,6.77,10.595,7.491,16.944c0.229,2.014-0.207,4.122-0.036,6.156
	c0.218,2.544,0.587,2.851,2.228,4.756c0.249,0.291,0.514,0.586,0.778,0.898c0.307-0.343,0.607-0.696,0.908-1.07
	c2.29-2.845,1.132-6.956,0.696-10.704c-0.255-2.175-1.018-3.894-1.21-6.12c-0.187-2.196,0.498-4.014,0.68-6.121
	c0.188-2.186,0.764-3.977,0.681-6.115c-0.078-1.9-1.022-2.855-1.479-4.646c-3.281-1.027-6.687,2.145-7.886-2.99
	c-0.695-2.979,0.955-6.302,1.36-9.214c0.893-6.442,0.503-13.742,0.524-20.542c0.01-3.104-0.395-4.527-1.869-6.973
	c-1.433-2.383-2.232-2.855-2.206-5.949c0.036-5.347,0.456-10.512-2.176-14.92c-1.323-2.217-3.566-3.644-5.134-5.647
	c-1.454-1.849-2.077-3.857-3.042-5.929c-1.983-4.265-5.197-8.33-8.82-11.408c-4.153-3.524-9.064-5.946-13.633-8.851
	c-1.967-1.254-4.448-2.389-6.629-3.403c-2.144-0.997-4.169-2.435-6.271-3.397c-4.412-2.024-9.635-2.472-14.654-3.024
	c-2.481-0.272-5.389-0.769-8.161-0.376c-2.159,0.306-3.774,2.214-6.151,2.006c-0.576,2.902-4.283,4.833-4.911,8.005
	c-0.244,1.252-0.291,2.531-0.28,3.809c1.641-0.875,3.432-1.576,5.077-2.414C417.056,218.673,422.756,218.139,427.776,218.795z"/>
<path fill="#FFFDEB" d="M497.127,381.28c0.373-2.85-2.077-7.563-1.396-10.201c0.81-3.114,4.786-2.33,4.116-5.435
	c-0.586-2.7-1.121-8.385-2.72-10.876c-1.064-1.661-6.599-1.932-7.559-3.541c-0.488,0.089-0.856,0.271-1.008,0.623
	c-0.939,2.17,1.396,6.354,1.615,8.354c0.389,3.493-1.013,7.61-1.849,10.917c-1.323,5.248,0.275,6.323,2.866,10.803
	c0.664,1.147,1.37,2.617,1.692,4.019C495.04,384.732,496.867,383.258,497.127,381.28z"/>
<linearGradient id="ian_symbols_328bd11caad62884c5c2245095bd19f5" gradientUnits="userSpaceOnUse" x1="341.7646" y1="319.0029" x2="420.2669" y2="248.3192">
	<stop  offset="0" style="stop-color:#52383D"/>
	<stop  offset="0.2545" style="stop-color:#6E3F2B"/>
	<stop  offset="0.9273" style="stop-color:#C6A14F"/>
</linearGradient>
<path fill="url(#ian_symbols_328bd11caad62884c5c2245095bd19f5)" d="M362.074,236.744c-1.796-1.226-0.861-7.774-0.877-10.066c-0.011-1.747,0.446-3.029,0.441-4.813
	c-0.005-1.819-0.275-3.919,0.099-5.687c0.789-3.74,2.445-5.121,5.7-6.892c2.258-1.23,7.651-0.898,10.388-0.568
	c5.414,0.646,12.423,4.412,14.77,9.746c1.401,3.186,2.953,6.292,4.152,9.526c1.174,3.161,3.25,5.708,4.377,8.739
	c1.038,2.785,1.827,5.667,3.504,8.205c1.812,2.746,3.914,5.555,5.129,8.446c1.257,3.017,1.334,6.193,1.324,9.614
	c-0.016,3.624,2.393,5.752,3.939,8.727c2.035,3.914,1.464,6.541,0.966,10.528c-0.436,3.504-0.612,6.271,1.096,9.308
	c1.495,2.648,3.758,4.449,4.069,7.751c0.183,1.921-1.038,2.995-1.65,4.485c-0.778,1.879-0.332,2.497,0.327,4.268
	c1.085,2.881-0.556,5.497-0.893,8.29c-0.229,1.849,0.207,2.721-0.977,4.272c-0.576,0.764-0.695,0.93-1.531,1.537
	c-0.41,0.29-0.457,0.561-0.961,0.81c-0.363,0.177-0.851-0.249-1.235,0.057c-1.018,0.779-1.276,2.259-1.412,3.4
	c-0.274,2.362,0.717,3.162-1.765,3.936c-3.058,0.955-3.115,3.099-4.434,5.617c-0.238,0.052-0.473,0.114-0.706,0.166
	c-0.384,1.604-2.195,2.502-2.611,4.293c-0.238,1.018,0.042,2.056-0.077,3.084c-0.073,0.664-0.706,1.624-0.8,2.263
	c-0.55,3.779-0.233,7.216-3.925,9.204c-3.473,1.864-6.053,3.499-9.406,0.867c-2.378-1.858-5.243-5.456-6.095-8.337
	c-1.111-0.369-3.104,0.607-4.304,0.794c-1.775,0.271-3.826,0.737-5.685,0.457c-3.806-0.565-5.855-4.189-9.188-5.27L362.074,236.744z
	"/>
<path fill="#FFFFFF" d="M406.621,335.981c1.318-2.519,1.376-4.662,4.434-5.617c2.481-0.773,1.49-1.573,1.765-3.936
	c0.136-1.142,2.284-3.28,2.647-3.457c0.504-0.249,0.551-0.52,0.961-0.81c0.836-0.607,0.955-0.773,1.531-1.537
	c1.184-1.552,0.748-2.424,0.977-4.272c0.337-2.793,1.978-5.409,0.893-8.29c-0.659-1.771-1.105-2.389-0.327-4.268
	c0.612-1.49,1.833-2.564,1.65-4.485c-0.312-3.302-2.574-5.103-4.069-7.751c-1.708-3.036-1.531-5.804-1.096-9.308
	c0.498-3.987,1.069-6.614-0.966-10.528c-1.547-2.975-3.955-5.103-3.939-8.727c0.01-3.421-0.067-6.598-1.324-9.614
	c-1.215-2.892-3.317-5.7-5.129-8.446c-1.677-2.538-2.466-5.42-3.504-8.205c-1.127-3.031-3.203-5.578-4.377-8.739
	c-1.199-3.234-2.751-6.341-4.152-9.526c-2.347-5.334-9.355-9.1-14.77-9.746c-2.736-0.33-8.13-0.662-10.388,0.568
	c-3.255,1.771-4.911,3.151-5.7,6.892c-0.119,0.556-0.161,1.149-0.182,1.752c0.031-0.003,0.052,0,0.083-0.003
	c2.149-0.163,2.211-1.095,3.826-2.294c1.557-1.155,2.596-0.39,4.485-0.33c1.982,0.063,3.244-0.371,4.911-0.778
	c3.431-0.839,5.804,1.196,6.463,4.28c0.706,3.286,2.269,5.863,5.347,7.766c1.324,0.815,2.643,1.337,3.405,2.736
	c0.898,1.65,0.546,3.369,0.971,5.149c0.759,3.164,4.382,3.844,6.137,6.564c1.78,2.746,1.194,6.297,2.071,9.277
	c0.96,3.26,2.975,6.172,4.387,9.22c1.313,2.839,3.281,5.248,4.485,8.181c1.069,2.617,1.469,7.72,0.789,10.632
	c-0.301,1.293-1.199,2.565-1.36,3.894c-0.26,2.145,0.524,2.897,1.667,4.48c0.971,1.36,1.588,2.871,1.76,4.392
	c0.233,2.066-0.39,2.943-1.313,4.62c-0.618,1.116-1.381,2.58-1.116,3.936c0.27,1.365,2.024,2.149,2.855,3.266
	c1.801,2.429,2.626,6.754,1.531,9.63c-0.576,1.495-0.986,2.652-1.412,4.277c-0.431,1.641-0.795,2.813-2.212,3.478
	c-1.448,0.676-2.455,0.815-2.948,2.638c-0.493,1.817-0.036,3.214-0.867,4.921c-1.423,2.918-2.58,4.958-1.749,8.099
	c0.228,0.856,0.223,1.957,0.207,3.104C404.659,338.068,406.383,336.033,406.621,335.981z"/>
<linearGradient id="ian_symbols_7e8be827c496bb44419c6d25c0db09d6" gradientUnits="userSpaceOnUse" x1="315.8809" y1="342.4268" x2="385.8487" y2="249.5763">
	<stop  offset="0" style="stop-color:#52383D"/>
	<stop  offset="0.4303" style="stop-color:#6E3F2B"/>
	<stop  offset="1" style="stop-color:#A89263"/>
</linearGradient>
<path fill="url(#ian_symbols_7e8be827c496bb44419c6d25c0db09d6)" d="M312.196,310.688c0.675-1.032,1.127-2.704,1.417-3.93c0.441-1.837,1.147-3.468,1.548-5.259
	c0.805-3.607,1.298-7.299,1.837-10.948c0.473-3.203,1.719-6.546,3.073-9.641c1.147-2.632,3.12-6.032,3.4-8.825
	c0.629-6.162,1.75-13.015,5.446-18.169c4.434-6.173,4.844-13.648,7.231-20.685c1.033-3.048,1.184-5.467,4.584-6.895
	c3.021-1.267,7.034-1.282,10.403-0.971c5.793,0.532,9.552,6.229,13.564,10.073c4.211,4.037,7.762,8.421,10.606,13.446
	c1.724,3.031,2.087,6.302,2.497,9.76c0.29,2.481-0.338,7.61,1.442,9.489c0.894,0.939,2.368,1.142,3.073,2.181
	c0.769,1.132,0.95,3.457,0.753,4.926c-0.202,1.548-1.188,2.793-1.334,4.382c-0.166,1.89,1.022,2.912,1.667,4.485
	c1.178,2.881,1.359,6.458,0.545,9.511c-0.795,2.995-0.114,6.764,0.768,9.723c1.096,3.691,0.12,5.825-1.303,8.986
	c-0.664,1.479-1.49,2.721-1.225,4.496c0.243,1.63,1.256,3.151,1.666,4.797c0.846,3.437,1.309,6.873,0.426,10.507
	c-0.701,2.866-0.478,6.895-3.93,8.213c-2.383,0.908-7.268-0.249-8.981,1.962c-1.012,1.309-0.727,3.079-0.976,4.709
	c-0.197,1.318-1.152,2.923-2.087,3.94c-2.591,2.824-5.727,2.107-7.112-1.324c-0.446-1.111-1.345-2.445-1.65-3.603
	c-0.447-1.708-0.053-3.162-0.977-4.709c-1.018-1.713-1.962-1.142-3.52-1.729c-1.755-0.67-2.149-1.926-3.151-3.426
	c-1.23-1.854-2.352-2.217-4.143-1.288c-1.63,0.847-2.419,1.412-4.495,1.189c-3.447-0.369-6.978-0.831-10.16,0.321
	c-2.948,1.064-5.264,3.286-7.771,5.036c-1.22,0.856-1.687,1.365-2.74,2.444c-0.556,0.562-2.093,1.609-2.959,1.387L312.196,310.688z"
	/>
<path fill="#FCFDF9" d="M368.31,350.953c0.935-1.018,1.89-2.622,2.087-3.94c0.249-1.63-0.036-3.4,0.976-4.709
	c1.714-2.211,6.599-1.054,8.981-1.962c3.452-1.318,3.229-5.347,3.93-8.213c0.883-3.634,0.42-7.07-0.426-10.507
	c-0.41-1.646-1.423-3.167-1.666-4.797c-0.266-1.775,0.561-3.017,1.225-4.496c1.423-3.161,2.398-5.295,1.303-8.986
	c-0.882-2.959-1.563-6.728-0.768-9.723c0.814-3.053,0.633-6.63-0.545-9.511c-0.645-1.573-1.833-2.596-1.667-4.485
	c0.146-1.589,1.132-2.834,1.334-4.382c0.197-1.469,0.016-3.794-0.753-4.926c-0.705-1.039-2.18-1.241-3.073-2.181
	c-1.78-1.879-1.152-7.008-1.442-9.489c-0.41-3.458-0.773-6.729-2.497-9.76c-2.845-5.025-6.396-9.409-10.606-13.446
	c-4.013-3.844-7.771-9.541-13.564-10.073c-3.369-0.312-7.382-0.296-10.403,0.971c-3.4,1.428-3.551,3.847-4.584,6.895
	c-0.119,0.348-0.229,0.695-0.338,1.043c0.935-0.143,1.947-0.177,2.638-0.254c1.661-0.189,3.379-0.712,4.921-1.108
	c3.302-0.857,5.944-0.864,8.083,1.765c1.033,1.267,1.651,2.78,2.311,4.23c0.799,1.761,2.092,3.073,3.618,4.288
	c2.315,1.838,5.337,2.539,7.646,4.595c2.051,1.827,4.517,5.118,4.932,7.756c0.271,1.713-0.312,3.566,0.089,5.259
	c0.395,1.677,1.428,3.203,2.206,4.719c1.381,2.679,2.486,6.266,2.85,9.282c0.203,1.713,0.094,3.51,0.094,5.254
	c0,1.978,0.332,3.233,0.778,4.91c0.405,1.506,0.717,2.508,1.304,3.951c0.612,1.5,0.996,2.569,0.986,4.268
	c-0.026,3.441-0.52,6.442-0.898,9.599c-0.208,1.697,0.099,3.39-0.321,4.932c-0.416,1.516-0.779,3.094-0.981,4.719
	c-0.399,3.219,0.556,6.696,1.313,9.635c0.805,3.11,1.417,6.303,0.327,9.614c-1.251,3.816-2.913,3.967-6.879,3.94
	c-4.495-0.036-3.992,2.943-4.376,6.562c-0.233,2.17-1.179,2.436-2.954,3.613c-1.018,0.67-2.098,1.392-3.255,1.88
	c0.343,0.669,0.711,1.339,0.955,1.946C362.583,353.061,365.719,353.777,368.31,350.953z"/>
<linearGradient id="ian_symbols_57078d4cf9c13d3471a63e032f45ef84" gradientUnits="userSpaceOnUse" x1="257.9932" y1="256.373" x2="327.623" y2="256.373">
	<stop  offset="0" style="stop-color:#4C353C"/>
	<stop  offset="0.3939" style="stop-color:#8E7240"/>
	<stop  offset="0.7515" style="stop-color:#AC9E74"/>
</linearGradient>
<path fill="url(#ian_symbols_57078d4cf9c13d3471a63e032f45ef84)" d="M286.687,381.026c0.529,0.062,0.8-0.172,0.805-0.696c-1.947-3.255-6.359-7.371-9.567-9.184
	c-4.065-2.294-8.26-4.526-9.002-9.64c-0.841-5.757-0.399-11.562-1.755-17.054c-1.412-5.757-2.948-11.675-5.041-17.188
	c-3.888-10.258-0.306-24.14,0.935-34.402c1.448-11.972,0.779-23.818-2.186-35.188c-1.375-5.264-2.699-11.529-2.87-17.193
	c-0.172-5.596,1.531-11.903,2.906-17.206c0.623-2.404,0.649-4.742,1.558-7.156c1.028-2.752,2.45-5.412,3.266-8.063
	c1.484-4.841,1.194-11.278,1.594-16.334c0.478-6.043-0.271-12.039,0.872-17.926c0.488-2.503,1.724-4.688,2.009-7.154
	c0.354-3.034-0.099-6.275-0.016-9.339c0.239-8.636,8.841-20.202,16.67-24.22c4.849-2.487,9.536-1.348,14.006,1.436
	c4.002,2.491,8.768,2.66,12.506,5.419c7.859,5.807,13.259,16.475,14.183,25.97c0.529,5.456-2.295,9.993-2.887,15.042
	c-0.685,5.885,0.836,12.072,0.016,17.941c-0.675,4.836-4.963,9.918-4.334,15.06c0.285,2.365,1.578,4.841,2.341,7.014
	c1.018,2.892,1.277,5.475,1.277,8.763c0,5.137-0.981,9.589-2.191,14.3c-1.178,4.589-0.675,10.103-0.675,15.102
	c0,5.315,1.459,9.926,1.434,15.055c-0.026,5.077,1.619,9.547,2.17,14.323c1.043,9.095,1.982,20.931-0.577,29.574
	c-1.323,4.465-2.429,7.984-3.011,12.75c-0.628,5.176-0.731,10.403-0.731,15.776L286.687,381.026z"/>
<path fill="#FFFFFF" d="M293.98,263.557c-1.968,2.669-0.878,9.433-2.295,14.229c-1.287,4.351-3.188,8.119-1.417,12.891
	c0.742,1.988,1.937,3.628,2.17,5.721c0.316,2.84-0.764,4.309-1.287,6.634c-0.493,2.176-0.463,5.467-0.161,7.72
	c0.321,2.414,1.619,4.034,2.273,6.344c4.299,1.433,3.39-10.522,3.618-12.636c0.478-4.329,1.589-8.274,3.608-12.35
	c1.188-2.403,1.65-4.48,2.128-7.014c0.546-2.86,0.167-3.297-0.872-5.861c-1.162-2.86-1.193-4.688-0.877-7.361
	c0.208-1.775,1.235-3.644-0.561-7.008C298.513,261.496,295.947,260.884,293.98,263.557z"/>
<path fill="#F6FAF6" d="M324.671,180.95c0.592-5.049,3.416-9.586,2.887-15.042c-0.924-9.495-6.323-20.163-14.183-25.97
	c-3.738-2.759-8.504-2.928-12.506-5.419c-4.47-2.783-9.157-3.923-14.006-1.436c-7.305,3.748-15.278,14.068-16.504,22.449
	c0.603-0.412,1.215-0.833,1.828-1.292c1.837-1.392,2.922-2.868,4.636-4.646c4.246-4.402,5.996-7.479,12.028-8.766
	c6.058-1.293,10.564-1.315,14.883,3.605c3.006,3.421,6.121,6.948,9.287,10.198c1.636,1.68,2.777,2.827,3.079,5.523
	c0.327,2.92,0.182,6.456-0.177,9.34c-0.628,5.107-0.825,10.938-3.945,15.254c-1.34,1.851-3.566,3.452-4.537,5.503
	c-0.478,1.013-0.218,2.453-0.82,3.603c-0.81,1.548-2.352,2.472-3.302,3.782c-1.661,2.287-2.113,3.377-4.459,4.823
	c-2.477,1.523-2.975,2.613-4.47,4.858c-1.396,2.103-3.987,2.957-5.55,4.644c-2.206,2.381-0.784,5.062-2.159,7.723
	c-0.919,1.785-2.762,3.078-3.759,4.846c-1.744,3.084-0.867,5.033-0.504,8.025c0.675,5.555-1.677,10.204-2.886,15.084
	c-0.732,2.959-3.795,14.131,2.85,12.968c4.589-0.805,5.306-11.499,5.02-15.106c-0.238-2.99-0.835-4.371,0.197-7.131
	c0.919-2.45,2.414-4.703,2.689-7.192c0.146-1.326-0.384-2.904,0.13-4.158c0.457-1.126,1.672-1.695,2.175-2.855
	c1.241-2.85-1.396-5.401,1.957-7.379c2.472-1.456,3.489-0.551,5.063-3.53c1.874-3.543,2.715-3.377,6.468-4.285
	c3.214-0.779,5.575-4.047,6.458-7.17c1.163-4.119,2.107-6.655,6.593-8.464c2.315-0.938,4.106-1.932,5.592-3.533
	C324.531,186.829,324.334,183.854,324.671,180.95z"/>
<linearGradient id="ian_symbols_1ad8faedaa328004a54508a48d2d7551" gradientUnits="userSpaceOnUse" x1="283.8154" y1="367.8516" x2="336.6289" y2="367.8516">
	<stop  offset="0" style="stop-color:#5C494D"/>
	<stop  offset="0.6303" style="stop-color:#958564"/>
</linearGradient>
<path fill="url(#ian_symbols_1ad8faedaa328004a54508a48d2d7551)" d="M307.478,303.582c-6.774,7.709-9.318,17.973-9.318,28.688c0,5.404,2.165,11.825,0.753,17.24
	c-1.007,3.847-6.447,7.59-9.199,10.164c-3.645,3.411-5.181,7.372-5.181,12.75c0,6.142-0.696,11.873-0.717,17.921
	c-0.016,5.492,2.077,9.682,7.175,12.188c4.609,2.274,7.875,3.94,11.649,7.71c1.137,1.137,2.715,2.211,3.603,3.571
	c0.966,1.49,1.209,3.53,1.937,5.191c1.464,3.343,5.046,5.716,8.104,7.714c3.54,2.306,7.045,1.994,10.554,3.785
	c2.113,1.074,5.669,7.418,8.462,5.585c2.86-1.868,0.452-9.562-1.111-11.504c-0.908-1.126-3.047-2.258-3.618-3.551
	c-1.059-2.403,0.789-3.592,1.49-5.394c0.644-1.666,1.064-3.593-0.379-5.035c-1.827-1.833-4.174,0.14-6.126-1.044
	c-3.479-2.118-0.753-7.688-5.772-8.586c-0.592-2.306,3.769-6.521,4.75-8.639c1.209-2.606,2.466-7.6,2.43-10.477
	c0.395-0.067,0.789-0.155,1.173-0.259c1.23-3.483,3.073-6.074,3.883-9.739c0.961-4.335,0.966-7.548-2.128-11.094
	c-0.862-0.986-2.768-2.098-3.078-3.369c-0.479-1.941,1.433-3.358,1.5-5.02c0.146-3.671-2.98-6.396-4.18-9.517
	c-1.287-3.338-1.889-7.429-2.87-10.756c-1.101-3.723-3.396-6.541-5.015-10.04c-3.058-6.599,3.271-19.437-5.182-22.785
	L307.478,303.582z"/>
<path fill="#FFFFFF" d="M335.298,436.09c2.86-1.868,0.452-9.562-1.111-11.504c-0.908-1.126-3.047-2.258-3.618-3.551
	c-1.059-2.403,0.789-3.592,1.49-5.394c0.644-1.666,1.064-3.593-0.379-5.035c-1.827-1.833-4.174,0.14-6.126-1.044
	c-3.479-2.118-0.753-7.688-5.772-8.586c-0.592-2.306,3.769-6.521,4.75-8.639c1.209-2.606,3.219-10.632,3.603-10.735
	c1.23-3.483,3.073-6.074,3.883-9.739c0.961-4.335,0.966-7.548-2.128-11.094c-0.862-0.986-2.768-2.098-3.078-3.369
	c-0.479-1.941,1.433-3.358,1.5-5.02c0.146-3.671-2.98-6.396-4.18-9.517c-1.287-3.338-1.889-7.429-2.87-10.756
	c-1.101-3.723-3.396-6.541-5.015-10.04c-3.058-6.599,3.271-19.437-5.182-22.785l-3.587,4.299c-1.386,1.578-2.591,3.275-3.634,5.051
	c0.529,1.952,1.21,3.884,2.024,5.888c1.937,4.76,1.506,9.604,4.662,13.964c1.516,2.093,3.665,4.153,4.138,6.635
	c0.539,2.865-0.016,6.411-0.016,9.334c0,5.763,1.396,9.36,4.858,13.788c2.809,3.598,5.903,9.672,3.94,14.375
	c-1.827,4.392-10.917,1.937-8.659,9.142c0.81,2.58,3.344,3.25,2.762,6.479c-0.348,1.937-2.186,5.342-3.083,6.951
	c-1.313,2.347-2.996,2.772-2.705,5.929c0.233,2.564,1.957,4.402,2.17,7.153c0.239,3.178-0.898,7.31,0.717,10.041
	c1.848,3.125,5.876,1.889,8.42,3.769c2.32,1.713,3.151,4.833,3.374,8.254c0.136,0.058,0.26,0.104,0.39,0.172
	C328.949,431.579,332.505,437.923,335.298,436.09z"/>
</svg>
