
        <svg xmlns:rdf="http://www.w3.org/1999/02/22-rdf-syntax-ns#" xmlns="http://www.w3.org/2000/svg" xmlns:cc="http://creativecommons.org/ns#" xmlns:xlink="http://www.w3.org/1999/xlink" xmlns:dc="http://purl.org/dc/elements/1.1/" x="0px" y="0px" width="396" height="502" viewBox="0 0 396 502" xml:space="preserve">
            <title>Urosalpinx cinerea (Oyster Drill)</title>
            <desc xmlns:ian_image_library="https://ian.umces.edu/media-library/">
                <ian_image_library:title>Urosalpinx cinerea (Oyster Drill)</ian_image_library:title>
                <ian_image_library:descr>Illustration of Urosalpinx cinerea (Oyster Drill)</ian_image_library:descr>
                <ian_image_library:scene>
                    <ian_image_library:contains>Eastern, oyster, drill, sea, snail, rock, snail, murex, Atlantic, Mollusca, Gastropoda, Sorbeoconcha, Muricidae, Urosalpinx, cinerea</ian_image_library:contains>
                    <ian_image_library:when>2004-04-15</ian_image_library:when>
                </ian_image_library:scene>
            </desc>
            <metadata id="metadata-iil-80ac9a3acc9a75e4b1a26145a235b71b">
                <rdf:RDF>
                <cc:Work
                rdf:about="">
                <dc:format>image/svg+xml</dc:format>
                <dc:type
                rdf:resource="http://purl.org/dc/dcmitype/StillImage" />
                <cc:license
                rdf:resource="http://creativecommons.org/licenses/by-sa/3.0/" />
                <dc:title>Urosalpinx cinerea (Oyster Drill)</dc:title>
                <dc:date>2004-04-15</dc:date>
                <dc:creator>
                    <cc:Agent>
                        <dc:title></dc:title>
                    </cc:Agent>
                </dc:creator>
                <dc:rights>
                <cc:Agent>
                    <dc:title></dc:title>
                </cc:Agent>
                </dc:rights>
                <dc:publisher>
                <cc:Agent>
                    <dc:title>Integration and Application Network</dc:title>
                </cc:Agent>
                </dc:publisher>
                <dc:identifier>https://ian.umces.edu/media-library/urosalpinx-cinerea-oyster-drill/</dc:identifier>
                <dc:source>https://ian.umces.edu/media-library/urosalpinx-cinerea-oyster-drill/</dc:source>
                <dc:language>en-US</dc:language>
                <dc:subject>
                <rdf:Bag>
                    <rdf:li>Eastern, oyster, drill, sea, snail, rock, snail, murex, Atlantic, Mollusca, Gastropoda, Sorbeoconcha, Muricidae, Urosalpinx, cinerea</rdf:li>
                </rdf:Bag>
                </dc:subject>
                <dc:coverage></dc:coverage>
                <dc:description>Illustration of Urosalpinx cinerea (Oyster Drill)</dc:description>
                <dc:contributor>
                <cc:Agent>
                    <dc:title></dc:title>
                </cc:Agent>
                </dc:contributor>
            </cc:Work>
            <cc:License
                rdf:about="http://creativecommons.org/licenses/by-sa/3.0/">
                <cc:permits
                rdf:resource="http://creativecommons.org/ns#Reproduction" />
                <cc:permits
                rdf:resource="http://creativecommons.org/ns#Distribution" />
                <cc:requires
                rdf:resource="http://creativecommons.org/ns#Notice" />
                <cc:requires
                rdf:resource="http://creativecommons.org/ns#Attribution" />
                <cc:permits
                rdf:resource="http://creativecommons.org/ns#DerivativeWorks" />
                <cc:requires
                rdf:resource="http://creativecommons.org/ns#ShareAlike" />
            </cc:License>
            </rdf:RDF>
            </metadata>
            
<linearGradient id="ian_symbols_0f6f61225bc8bbf4d9da626a03fe0ba6" gradientUnits="userSpaceOnUse" x1="145.0786" y1="45.147" x2="362.4357" y2="304.1892" gradientTransform="matrix(1 0 0 -1 0 502)">
	<stop  offset="0" style="stop-color:#F8E7BE"/>
	<stop  offset="0.4663" style="stop-color:#EBCC9D"/>
	<stop  offset="0.8427" style="stop-color:#DDB88B"/>
	<stop  offset="1" style="stop-color:#C59A71"/>
</linearGradient>
<path fill="url(#ian_symbols_0f6f61225bc8bbf4d9da626a03fe0ba6)" d="M127.298,175.428c0,0,60.584-63.263,71.111-66.646c10.506-3.355,39.903,6.076,45.984,7.605
	c6.075,1.516,2.51,3.789,11.623,6.818c9.093,3.031,16.426,4.547,21.007,6.84c4.52,2.252,3.762,6.062,8.322,9.85
	c4.566,3.789,12.145,5.304,16.683,8.355c4.567,3.011,7.585,9.851,12.145,9.851s4.56,11.365,10.629,15.939
	c6.062,4.547,6.819,3.788,9.845,8.335c1.42,2.097,3.477,5.994,5.426,10.107c0.602,1.258,0.492,3.376,1.049,4.635
	c1.549,3.484,3.558,5.919,4.152,8.01c1.53,5.305,8.35,12.144,12.896,14.41c4.56,2.288,1.523,15.446,3.064,20.256
	c1.495,4.784,3.019,4.026,6.049,9.33c3.043,5.325,0,11.386,0.757,17.449c0.751,6.062,3.553,13.185,3.553,16.452
	c0,3.275-3.302,6.258-5.846,9.066c-2.503,2.793,1.009,21.79,0.236,25.83c-0.743,4.025-4.749,10.339-6.297,12.61
	c-1.517,2.279,0.776,13.422-0.759,18.727c-1.494,5.304-4.546,8.336-3.025,13.659c1.53,5.303,10.081,12.359,10.853,18.435
	c0.765,6.076-1.009,14.41,0.527,21.237c1.508,6.834,14.41,6.596,18.212,11.144c3.788,4.545,0.744,13.657,3.038,17.448
	c2.252,3.788,4.511,0.758,6.053,4.546c1.523,3.787,1.753,22.766-2.034,28.063c-3.789,5.323-7.842,10.627-10.858,12.9
	c-3.025,2.286-7.591,0.758-11.367,0c-3.802-0.758-9.093,5.541-15.188,8.599c-6.062,3.032-14.418,5.818-21.237,2.781
	c-6.832-3.032-15.925-6.834-20.485-7.591c-4.56-0.757-9.094,0.759-15.155,2.287c-6.076,1.521-5.845,9.099-9.634,9.856
	c-3.809,0.759-8.571-3.031-13.132-0.758c-4.56,2.273-4.836,3.789-8.627,6.068c-3.787,2.28-10.351,0.994-15.653-1.278
	c-5.306-2.272-13.653-1-18.208-0.236c-4.56,0.758-4.56-6.068-9.092-7.584c-4.553-1.516-16.705,4.547-22.009,0.758
	c-5.298-3.795-9.107-11.386-14.41-12.901c-5.305-1.516-14.174,2.286-18.707-1.516c-4.56-3.787-5.048-3.269-7.32-7.828
	c-2.28-4.546-22.516-13.408-30.871-23.259c-8.335-9.879-9.106-20.25-14.397-23.302c-5.332-3.031-9.864-7.055-13.666-10.845
	c-3.795-3.789-18.192-36.418-19.721-42.479c-1.509-6.063-1.509-6.82-1.509-10.615c0-3.803-3.788-8.349-4.553-15.927
	c-0.758-7.603,0-12.15,0-17.453c0-5.305-5.317-10.629-7.59-19.722c-2.273-9.113-3.795-19.965,0.758-22.996
	c4.532-3.061,57.371-105.355,57.371-105.355L127.298,175.428z"/>
<linearGradient id="ian_symbols_83ba55d10c01327445f8d29de7009138" gradientUnits="userSpaceOnUse" x1="341.9805" y1="25.2988" x2="370.9164" y2="59.785" gradientTransform="matrix(1 0 0 -1 0 502)">
	<stop  offset="0" style="stop-color:#F9CD7C"/>
	<stop  offset="0.4944" style="stop-color:#E9AC65"/>
	<stop  offset="0.7472" style="stop-color:#EBB052"/>
	<stop  offset="0.9213" style="stop-color:#EBCC9D"/>
</linearGradient>
<path fill="url(#ian_symbols_83ba55d10c01327445f8d29de7009138)" d="M352.84,485.804c0,0,3.816-16.685,6.082-25.789c2.308-9.1-3.787-21.236-1.493-27.313
	c2.252-6.061,7.576,18.972,6.819,24.274c-0.778,5.304-3.019,21.237-4.567,24.269c-1.516,3.05-6.844,4.566-6.844,4.566
	L352.84,485.804z"/>
<linearGradient id="ian_symbols_626f302499ff50142913a365aa40c209" gradientUnits="userSpaceOnUse" x1="321.4365" y1="24.3896" x2="359.5391" y2="69.7976" gradientTransform="matrix(1 0 0 -1 0 502)">
	<stop  offset="0" style="stop-color:#F9CD7C"/>
	<stop  offset="0.4944" style="stop-color:#E9AC65"/>
	<stop  offset="0.7472" style="stop-color:#EBB052"/>
	<stop  offset="0.9213" style="stop-color:#EBCC9D"/>
</linearGradient>
<path fill="url(#ian_symbols_626f302499ff50142913a365aa40c209)" d="M341.48,418.279c5.325-1.515,5.325,15.934,6.847,23.523c1.509,7.59-4.547,48.549-6.847,47.791
	c-2.253-0.758-7.578-1.522-7.578-1.522s6.819-25.797,9.113-41.722c2.258-15.916-6.834-26.533-1.535-28.067V418.279z"/>
<linearGradient id="ian_symbols_24bc96634f0624d449f7a8989ea05b04" gradientUnits="userSpaceOnUse" x1="306.8906" y1="31.269" x2="365.5172" y2="101.1352" gradientTransform="matrix(1 0 0 -1 0 502)">
	<stop  offset="0" style="stop-color:#F9CD7C"/>
	<stop  offset="0.4944" style="stop-color:#E9AC65"/>
	<stop  offset="0.7472" style="stop-color:#EBB052"/>
	<stop  offset="0.9213" style="stop-color:#EBCC9D"/>
</linearGradient>
<path fill="url(#ian_symbols_24bc96634f0624d449f7a8989ea05b04)" d="M355.138,392.501c3.031,0.757,3.031,6.067-3.031,9.857c-6.063,3.801-9.094,2.272-12.138,5.316
	c-3.038,3.031-9.851,40.206-11.38,49.3c-1.522,9.101-3.788,27.318-3.788,27.318s-3.559,0-5.061-3.809
	c-1.543-3.787,5.812-41.707,9.62-53.089c3.788-11.371,2.26-23.509,5.285-24.267c3.052-0.771,6.074-3.809,10.627-3.809
	c4.547,0.01,6.824-7.566,9.854-6.813L355.138,392.501z"/>
<linearGradient id="ian_symbols_5810c23c94e03c542df6592caf25859e" gradientUnits="userSpaceOnUse" x1="299.623" y1="26.7173" x2="330.4549" y2="63.4587" gradientTransform="matrix(1 0 0 -1 0 502)">
	<stop  offset="0" style="stop-color:#F9CD7C"/>
	<stop  offset="0.4944" style="stop-color:#E9AC65"/>
	<stop  offset="0.7472" style="stop-color:#EBB052"/>
	<stop  offset="0.9213" style="stop-color:#EBCC9D"/>
</linearGradient>
<path fill="url(#ian_symbols_5810c23c94e03c542df6592caf25859e)" d="M311.908,478.98c0,0,1.502-6.076-0.758-14.425c-2.3-8.341,14.397-31.858,11.367-32.615
	c-3.032-0.758-2.275,2.273-6.821,6.062c-4.546,3.802-9.864,18.213-11.379,24.273c-1.528,6.083,1.501,18.206,1.501,18.206
	l6.082-1.506L311.908,478.98z"/>
<linearGradient id="ian_symbols_b81dbc0b161f83b421c2b0df879018d6" gradientUnits="userSpaceOnUse" x1="125.5786" y1="75.6807" x2="211.1001" y2="177.6" gradientTransform="matrix(1 0 0 -1 0 502)">
	<stop  offset="0.1011" style="stop-color:#F8E7BE"/>
	<stop  offset="0.2528" style="stop-color:#F9CD7C"/>
	<stop  offset="0.4944" style="stop-color:#E9AC65"/>
	<stop  offset="0.7472" style="stop-color:#EBB052"/>
	<stop  offset="0.9213" style="stop-color:#EBCC9D"/>
</linearGradient>
<path fill="url(#ian_symbols_b81dbc0b161f83b421c2b0df879018d6)" d="M308.837,406.509c-7.003,3.099-12.563-2.855-14.146-5.014c-5.236-7.11-13.617-9.207-20.968-11.744
	c-7.333-2.51-12.785-16.331-25.985-20.946c-13.213-4.6-30.188-13.003-31.026-19.281c-0.817-6.284-11.745-10.696-15.932-11.731
	c-4.202-1.055-9.019-19.077-21.792-25.159c-12.787-6.076-25.566-22.212-30.188-26.825c-4.607-4.614-12.996-8.593-20.107-10.892
	c-7.124-2.314-14.254-0.218-20.965-6.712c-6.705-6.502-5.026-18.442-5.026-18.442s-3.992-5.243-7.558-5.873
	c-3.558-0.623-27.223,33.326-27.644,38.563c-0.434,5.237-2.104,12.988,0,18.449c2.09,5.439,3.552,9.005,6.697,10.899
	c3.133,1.873,10.061,0,14.249,0.832c4.187,0.846,9.005-0.832,11.73-5.021c2.739-4.201-0.832-8.388,3.37-10.904
	c4.182-2.51,8.369,3.14,10.06,9.214c1.664,6.083,9.004,0.846,9.221,5.048c0.183,4.173-9.634,7.747-13.422,9.222
	c-3.782,1.46-13.849-0.219-17.604,0.824c-3.768,1.056,5.034,9.64,0,10.066c-5.046,0.406-5.669-0.427-8.389,0
	c-2.719,0.406-1.678,9.005-1.678,11.73c0,2.727,3.153,7.341,5.878,6.712c2.713-0.636,0.419-8.178,5.02-8.388
	c4.614-0.204,4.202-3.56,7.543-3.344c3.349,0.196,1.055,7.944,7.55,5.021c6.495-2.924,9.857,2.319,12.563,0
	c2.719-2.314,1.692-5.867,5.879-10.047c4.202-4.207,9.011-2.728,10.906-5.04c1.88-2.302,1.245-7.126,5.02-10.047
	c3.775-2.943,17.589-1.482,17.589,3.335c0,4.824-1.86,8.389-4.999,8.389c-3.153,0-1.895,5.656-6.711,6.697
	c-4.831,1.063-9.654-2.293-13.416,1.691c-3.775,3.987-3.16,10.48-5.033,13.402c-1.895,2.943-20.12,19.701-23.456,24.309
	c-3.369,4.628,5.845,16.157,10.865,15.94c5.047-0.218-1.244-10.479,2.537-10.893c3.755-0.419,6.278-9.025,9.221-10.067
	c2.923-1.04,12.773-3.354,15.906-3.354c3.173,0,0-14.465,1.698-18.45c1.678-3.971,5.236-2.3,8.389-6.712
	c3.139-4.39,10.054-19.483,12.57-15.918c2.517,3.557,7.523,25.362,2.517,25.985c-5.034,0.63-16.981,22.009-15.932,26.824
	c1.028,4.83,3.984,3.985,7.544,3.356c3.565-0.622,3.355-10.066,6.711-11.731c3.355-1.678,5.439-1.475,5.006-5.032
	c-0.406-3.56,7.976-15.927,8.375-10.061c0.453,5.873,2.753,7.334,0,10.893c-2.692,3.571-7.307,10.283-10.879,13.422
	c-3.558,3.139-4.614,3.139-5.033,8.383c-0.414,5.236,2.314,2.922,6.711,2.511c4.398-0.414,7.557-0.204,9.201-4.188
	c1.712-3.984,3.37-10.479,5.894-13.416c2.51-2.93,7.542-10.27,10.885-10.065c3.369,0.216,4.202-2.727,6.711,0
	c2.537,2.726,6.929,13.002,2.537,15.932c-4.397,2.949-20.757,9.011-20.132,15.939c0.648,6.907,6.285,9.438,2.51,15.926
	c-3.768,6.501-22.001,28.076-21.785,31.858c0.195,3.762,2.286,8.789,5.858,8.375c3.566-0.411-1.028-12.786,3.37-14.248
	c4.39-1.468,5.648-4.823,10.047-8.375c4.39-3.572,10.683-13.423,13.409-17.61c2.719-4.195-4.608-10.905-0.846-15.926
	c3.781-5.047,7.569-9.438,13.414-8.388c5.88,1.049,11.109-4.818,15.088-2.525c3.998,2.315,6.088,9.019,4.202,12.592
	c-1.881,3.558-5.021,3.971-6.698,7.542c-1.679,3.552,6.698,11.521,5.033,15.081c-1.69,3.559-9.031,6.508-12.584,9.234
	c-3.572,2.727-25.979,29.335-31.844,32.691c-5.878,3.354-6.082,12.989-3.355,13.399c2.706,0.435,4.83-5.432,7.537-7.535
	c2.712-2.098,8.592-6.711,16.778-9.221c8.159-2.51,19.485-26.412,23.47-26.825c3.958-0.433,6.069-1.476,9.221-3.355
	c3.141-1.881,6.908-12.577,6.705-15.933c-0.217-3.356,10.251-9.851,13.396-6.705c3.14,3.153,3.788,3.153,2.536,5.873
	c-1.259,2.713-3.789,3.559-9.233,9.221c-5.468,5.663-2.098,9.424-5.86,15.079c-3.788,5.671-20.749,22.015-23.476,27.672
	c-2.727,5.668,2.727,7.549,1.678,13.407c-1.076,5.88-5.878,11.745-5.878,11.745s3.855,0.994,5.878,0
	c2.021-0.994,5.446-6.915,7.544-7.557c2.091-0.615-0.229-13.206,3.355-18.435c3.551-5.238,18.45-16.137,22.623-20.122
	c4.202-3.971,7.125-24.314,10.913-25.992c3.755-1.664,6.908-2.09,10.047,0c3.139,2.098,4.398,9.235,0.846,13.423
	c-3.564,4.188-28.516,24.098-30.181,31.013c-1.67,6.907-0.846,21.373-3.349,26.824c-2.529,5.459-2.529,7.768,0,9.229
	c2.503,1.468,2.503-4.616,5.859-6.712c3.355-2.083,1.692-0.413,5.866-2.517c4.201-2.098,3.971-20.547,7.544-28.489
	c3.578-7.969,12.171-7.755,17.604-13.423c5.458-5.677,0.858-20.113,5.878-18.448c1.819,0.607,8.896-3.648,14.201-5.475
	c5.268-1.876,5.128-15.112,4.134-14.682L308.837,406.509z"/>
<linearGradient id="ian_symbols_5b22ab35a888dfa485e89ac7aaf26230" gradientUnits="userSpaceOnUse" x1="313.2451" y1="87.4512" x2="343.9301" y2="124.0163" gradientTransform="matrix(1 0 0 -1 0 502)">
	<stop  offset="0" style="stop-color:#F9CD7C"/>
	<stop  offset="0.4944" style="stop-color:#E9AC65"/>
	<stop  offset="1" style="stop-color:#EBCC9D"/>
</linearGradient>
<path fill="url(#ian_symbols_5b22ab35a888dfa485e89ac7aaf26230)" d="M340.116,385.918c-2.652,1.468-5.833,1.028-9.507,3.66c-5.303,3.829-12.65,11.122-18.42,14.998
	c0.541,3.166-2.355,7.957,0.548,9.465c2.914,1.495,5.465-5.371,8.226-7.576c4.83-3.878,9.635-5.081,13.828-8.425
	c7.727-6.184,13.409-13.604,13.538-15.83c0.111-2.229-2.92,0.782-8.219,3.702L340.116,385.918z"/>
<linearGradient id="ian_symbols_c452132cc9431de4d51b13142b38ae2f" gradientUnits="userSpaceOnUse" x1="248.6455" y1="196.4795" x2="360.7881" y2="196.4795" gradientTransform="matrix(1 0 0 -1 0 502)">
	<stop  offset="0" style="stop-color:#F6F1D9"/>
	<stop  offset="1" style="stop-color:#F8E7BE"/>
</linearGradient>
<path fill="url(#ian_symbols_c452132cc9431de4d51b13142b38ae2f)" d="M312.48,299.217c-4.553,5.311-3.992,15.701-6.277,19.492c-2.274,3.786-10.306,7.881-12.577,13.197
	c-2.275,5.318-12.058-0.858-14.33,12.05c-2.272,12.896-28.827,34.896-28.827,34.896s-4.561,8.342,0.745,9.856
	c5.302,1.515,18.205-3.788,25.036-9.856c6.834-6.082,26.048-32.833,26.813-38.144c0.75-5.304,5.77-9.283,8.801-13.835
	c3.024-4.548,2.611-8.011,5.663-12.558c3.025-4.574,2.99-15.729,7.537-15.729c4.553,0,4.06-10.014,7.076-13.044
	c6.387-6.387,13.342-14.561,14.918-17.752c2.308-4.573-1.016-17.15,4.288-21.697c5.312-4.546,8.443-12.016,9.217-14.302
	c0.763-2.272-0.658-9.721-0.658-9.721s-10.661,19.152-15.985,23.699c-5.305,4.546-0.332,18.078-5.664,22.644
	c-5.304,4.546-13.565,11.413-15.087,14.45c-1.484,3.04-6.102,11.049-10.677,16.346L312.48,299.217z"/>
<linearGradient id="ian_symbols_6adfed4df31c7f64b98a5cecca3d3cda" gradientUnits="userSpaceOnUse" x1="220.4297" y1="226.2441" x2="340.5938" y2="226.2441" gradientTransform="matrix(1 0 0 -1 0 502)">
	<stop  offset="0" style="stop-color:#F6F1D9"/>
	<stop  offset="1" style="stop-color:#F8E7BE"/>
</linearGradient>
<path fill="url(#ian_symbols_6adfed4df31c7f64b98a5cecca3d3cda)" d="M221.625,362.166c4.561,2.273,15.934,2.273,22.009-0.759c6.062-3.038,14.41-14.417,15.175-18.962
	c0.736-4.566,0.467-11.63,4.27-16.177c3.787-4.553,12.164-17.211,18.239-22.516c6.062-5.304,2.522-16.69,7.828-19.721
	c5.289-3.031,0.743-15.182,3.036-17.455c2.253-2.273,9.607-0.237,11.131-4.026c1.528-3.802,1.007-12.65,6.298-13.422
	c5.331-0.757,15.939-28.056,20.506-30.329c4.527-2.3,7.579-17.456,9.851-20.486c2.287-3.032-2.422-10.588-2.422-10.588
	s-24.903,53.068-31.723,54.583c-6.807,1.516-18.951,3.031-23.511,8.335c-4.56,5.317-5.29,37.176-8.336,43.238
	c-3.043,6.067-18.205,21.473-22.765,28.32c-4.562,6.818-16.942,13.354-20.71,16.399c-3.803,3.031-13.417,21.294-8.88,23.562
	L221.625,362.166z"/>
<linearGradient id="ian_symbols_1da032eb8d36d044b5d425bfd8e8ffbe" gradientUnits="userSpaceOnUse" x1="185.936" y1="255.1855" x2="318.5625" y2="255.1855" gradientTransform="matrix(1 0 0 -1 0 502)">
	<stop  offset="0" style="stop-color:#F6F1D9"/>
	<stop  offset="1" style="stop-color:#F8E7BE"/>
</linearGradient>
<path fill="url(#ian_symbols_1da032eb8d36d044b5d425bfd8e8ffbe)" d="M188.25,334.098c7.597,5.297,12.137-2.273,20.479-3.044c8.354-0.759,10.629-22.752,17.455-23.511
	c6.819-0.758,6.819-6.819,8.341-10.629c1.509-3.788-1.522-9.092,0.751-13.65c2.279-4.534,13.659-16.685,17.449-21.23
	c3.787-4.555,9.512-12.287,14.829-17.597c5.316-5.311,23.624-25.634,28.178-31.723c4.56-6.062,6.291-22.746,10.087-26.542
	c3.789-3.788,9.736-16.914,12.151-20.472c2.401-3.558-3.14-9.323-5.047-7.78c-1.895,1.535-13.166,16.887-15.438,26.737
	c-2.28,9.857-3.053,25.505-12.901,27.799c-9.851,2.259-20.696,22.677-22.212,28.752c-1.516,6.062-18.74,11.711-17.982,15.52
	c0.758,3.788-11.387,3.788-15.188,4.539c-3.775,0.766,1.536,6.069-0.759,9.113c-2.26,3.032-9.843,0.744-15.911,6.063
	c-6.075,5.303,1.523,14.41-1.534,18.199c-3.025,3.809-5.285,11.387-11.359,10.629c-6.072-0.763-18.957,23.511-11.38,28.829
	L188.25,334.098z"/>
<linearGradient id="ian_symbols_4c1ca8dcd09c2d94216d2b6225938184" gradientUnits="userSpaceOnUse" x1="151.4033" y1="283.8906" x2="281.0215" y2="283.8906" gradientTransform="matrix(1 0 0 -1 0 502)">
	<stop  offset="0" style="stop-color:#F6F1D9"/>
	<stop  offset="1" style="stop-color:#F8E7BE"/>
</linearGradient>
<path fill="url(#ian_symbols_4c1ca8dcd09c2d94216d2b6225938184)" d="M154.121,306.783c-5.324-0.757-1.819-10.804,1.949-17.624c3.808-6.833,26.378-25.377,27.873-29.165
	c1.529-3.809,2.057-16.407,8.119-17.177c6.042-0.772,13.902-4.641,18.47-3.884c4.552,0.757,9.58-4.972,12.624-8.76
	c3.03-3.796,0-15.926,3.788-20.479c3.795-4.56,14.418-6.075,17.448-11.379c3.018-5.317,7.104-14.938,8.627-19.485
	c1.507-4.546,9.593-5.778,11.087-9.594c1.518-3.789-2.266-4.31,0-11.894c2.28-7.577,3.038-1.515,8.336-6.833
	c5.312-5.304,0.615-18.186,2.253-20.458c1.61-2.273,3.213,2.077,5.813,3.247c2.651,1.157-5.771,26.087-6.529,29.875
	c-0.771,3.79-5.319,6.549-4.561,11.109c0.759,4.546,0.759,9.614-4.553,10.371c-5.317,0.757-8.349,3.031-9.845,6.819
	c-1.534,3.809,0,6.84-4.553,10.629c-4.559,3.788-3.295,13.652-8.586,14.397c-5.316,0.777-6.603,19.749-15.695,22.766
	c-9.1,3.045-10.635,20.486-19.728,19.736c-9.113-0.759-18.963,28.063-26.562,33.366c-7.586,5.309-20.471,15.162-25.779,14.409
	L154.121,306.783z"/>
<linearGradient id="ian_symbols_d31d28be1d4cb094b11611568e9e3be7" gradientUnits="userSpaceOnUse" x1="125.083" y1="304.1055" x2="233.7676" y2="304.1055" gradientTransform="matrix(1 0 0 -1 0 502)">
	<stop  offset="0" style="stop-color:#F6F1D9"/>
	<stop  offset="1" style="stop-color:#F8E7BE"/>
</linearGradient>
<path fill="url(#ian_symbols_d31d28be1d4cb094b11611568e9e3be7)" d="M228.681,113.534c0.635,2.862-1.733,22.582-1.733,24.098c0,1.516-6.834,1.516-7.584,5.305
	c-0.759,3.788,3.551,4.026,1.291,10.859c-2.293,6.832-15.472,11.419-16.987,17.495c-1.524,6.062-2.51,17.916-6.319,23.226
	c-3.788,5.317-18.199,18.956-23.49,25.031c-5.332,6.075-12.171,3.802-15.959,9.864c-3.775,6.083-3.775,19.721-9.1,26.554
	c-5.283,6.826-19.924,13.755-19.924,13.755s-6.388,11.758-2.584,13.286c3.775,1.502,10.785-1.617,12.32-6.163
	c1.495-4.546,11.312-5.608,15.872-7.125c4.546-1.522,11.014-24.375,16.317-28.922c5.312-4.56,8.35-8.354,11.394-11.387
	c3.032-3.031-0.757-8.348,1.517-12.13c2.26-3.808,18.199-13.659,20.473-21.994c2.278-8.355,15.182-9.87,19.734-12.144
	c4.532-2.272,0.742-10.628,0.742-15.182c0-4.545-2.793-4.024-1.277-8.572c1.528-4.553,5.825-1.278,7.361-7.339
	c1.515-6.083-3.796-8.356-0.765-10.628c3.03-2.274,3.788-27.3,3.788-27.3s-5.721-3.452-5.087-0.572V113.534z"/>
<linearGradient id="ian_symbols_d507040f2a5ab38451ed6f968b727c66" gradientUnits="userSpaceOnUse" x1="270.0273" y1="158.4521" x2="371.9961" y2="158.4521" gradientTransform="matrix(1 0 0 -1 0 502)">
	<stop  offset="0" style="stop-color:#F6F1D9"/>
	<stop  offset="1" style="stop-color:#F8E7BE"/>
</linearGradient>
<path fill="url(#ian_symbols_d507040f2a5ab38451ed6f968b727c66)" d="M272.23,404.23c-4.391-5.669-1.86-9.438,4.417-11.331c6.278-1.896,28.286-35.194,29.552-40.87
	c1.257-5.656,5.663-0.622,10.677-4.391c5.025-3.782,20.761-16.359,24.545-19.511c3.761-3.14,8.173-6.278,11.311-13.809
	c3.139-7.557,10.684-27.042,13.206-32.068c2.496-5.04,7.522-3.464,5.649,0.777c-1.882,4.248-3.506,2.559-5.847,9.066
	c-2.325,6.495-8.619,30.383-17.419,36.031c-8.789,5.677-27.029,26.42-32.678,27.671c-5.675,1.259-21.379,41.507-23.915,45.281
	c-2.511,3.769-4.392,3.152-8.174,5.014c-3.773,1.907-6.903,3.782-11.329-1.867L272.23,404.23z"/>
<linearGradient id="ian_symbols_6eb549f9a8f99c94d54679c2325a6bfb" gradientUnits="userSpaceOnUse" x1="288.9619" y1="124.6533" x2="359.3955" y2="124.6533" gradientTransform="matrix(1 0 0 -1 0 502)">
	<stop  offset="0" style="stop-color:#F6F1D9"/>
	<stop  offset="1" style="stop-color:#F8E7BE"/>
</linearGradient>
<path fill="url(#ian_symbols_6eb549f9a8f99c94d54679c2325a6bfb)" d="M289.22,411.136c1.894-4.406,4.404-3.789,11.333-6.293c6.906-2.524,12.556-28.922,16.974-32.075
	c4.376-3.14,12.57-2.51,15.079-5.649c2.51-3.153,1.895-5.65,4.405-8.802c2.523-3.152,2.523-8.172,10.047-6.914
	c7.557,1.252,10.065-18.232,11.961-15.094c1.889,3.139-3.775,15.094-6.914,18.855c-3.154,3.781-8.816,1.888-11.955,5.027
	c-3.139,3.158-0.615,8.186-4.391,10.695c-3.788,2.525-11.955,3.768-15.094,7.558c-3.139,3.76-1.896,24.504-13.206,35.2
	c-11.3,10.687-20.12,1.886-18.244-2.52L289.22,411.136z"/>
<path fill="none" stroke="#8B5A4A" stroke-width="1.7319" d="M127.298,175.428c0,0,60.584-63.263,71.111-66.646
	c10.506-3.355,39.903,6.076,45.984,7.605c6.075,1.516,2.51,3.789,11.623,6.818c9.093,3.031,16.426,4.547,21.007,6.84
	c4.52,2.252,3.762,6.062,8.322,9.85c4.566,3.789,12.145,5.304,16.683,8.355c4.567,3.011,7.585,9.851,12.145,9.851
	s4.56,11.365,10.629,15.939c6.062,4.547,6.819,3.788,9.845,8.335c1.42,2.097,3.477,5.994,5.426,10.107
	c0.602,1.258,0.492,3.376,1.049,4.635c1.549,3.484,3.558,5.919,4.152,8.01c1.53,5.305,8.35,12.144,12.896,14.41
	c4.56,2.288,1.523,15.446,3.064,20.256c1.495,4.784,3.019,4.026,6.049,9.33c3.043,5.325,0,11.386,0.757,17.449
	c0.751,6.062,3.553,13.185,3.553,16.452c0,3.275-3.302,6.258-5.846,9.066c-2.503,2.793,1.009,21.79,0.236,25.83
	c-0.743,4.025-4.749,10.339-6.297,12.61c-1.517,2.279,0.776,13.422-0.759,18.727c-1.494,5.304-4.546,8.336-3.025,13.659
	c1.53,5.303,10.081,12.359,10.853,18.435c0.765,6.076-1.009,14.41,0.527,21.237c1.508,6.834,14.41,6.596,18.212,11.144
	c3.788,4.545,0.744,13.657,3.038,17.448c2.252,3.788,4.511,0.758,6.053,4.546c1.523,3.787,1.753,22.766-2.034,28.063
	c-3.789,5.323-7.842,10.627-10.858,12.9c-3.025,2.286-7.591,0.758-11.367,0c-3.802-0.758-9.093,5.541-15.188,8.599
	c-6.062,3.032-14.418,5.818-21.237,2.781c-6.832-3.032-15.925-6.834-20.485-7.591c-4.56-0.757-9.094,0.759-15.155,2.287
	c-6.076,1.521-5.845,9.099-9.634,9.856c-3.809,0.759-8.571-3.031-13.132-0.758c-4.56,2.273-4.836,3.789-8.627,6.068
	c-3.787,2.28-10.351,0.994-15.653-1.278c-5.306-2.272-13.653-1-18.208-0.236c-4.56,0.758-4.56-6.068-9.092-7.584
	c-4.553-1.516-16.705,4.547-22.009,0.758c-5.298-3.795-9.107-11.386-14.41-12.901c-5.305-1.516-14.174,2.286-18.707-1.516
	c-4.56-3.787-5.048-3.269-7.32-7.828c-2.28-4.546-22.516-13.408-30.871-23.259c-8.335-9.879-9.106-20.25-14.397-23.302
	c-5.332-3.031-9.864-7.055-13.666-10.845c-3.795-3.789-18.192-36.418-19.721-42.479c-1.509-6.063-1.509-6.82-1.509-10.615
	c0-3.803-3.788-8.349-4.553-15.927c-0.758-7.603,0-12.15,0-17.453c0-5.305-5.317-10.629-7.59-19.722
	c-2.273-9.113-3.795-19.965,0.758-22.996c4.532-3.061,57.371-105.355,57.371-105.355L127.298,175.428z"/>
<linearGradient id="ian_symbols_9acd6dabc2e87704756978e292fd78f8" gradientUnits="userSpaceOnUse" x1="20.2212" y1="263.999" x2="183.5872" y2="427.362" gradientTransform="matrix(1 0 0 -1 0 502)">
	<stop  offset="0" style="stop-color:#EBCC9D"/>
	<stop  offset="0.4494" style="stop-color:#E0C6A6"/>
	<stop  offset="1" style="stop-color:#C59A71"/>
</linearGradient>
<path fill="url(#ian_symbols_9acd6dabc2e87704756978e292fd78f8)" d="M116.932,56.46c8.369-2.273,32.644,0,50.849,6.062c18.186,6.072,34.889,43.991,34.889,48.564
	c0,4.547-0.764,23.51-5.324,28.057c-4.547,4.546-6.062,2.274-13.639,6.819c-7.598,4.546-25.811,37.176-31.858,44.753
	c-6.075,7.597-25.811,21.236-30.356,28.827c-4.56,7.591-6.82,13.66-10.622,18.977c-3.776,5.305-9.1,6.819-15.162,12.124
	c-6.062,5.317-4.546,9.105-8.334,13.659c-3.803,4.546-9.12,15.45-17.456,16.452c-8.355,0.987-31.108-24.03-32.602-27.082
	c-1.536-3.03,0-11.365-3.058-14.41c-3.017-3.031-6.049-10.615-5.311-15.161c0.758-4.561,3.809-12.895,3.064-17.455
	c-0.771-4.547-5.328-10.338-4.569-20.203c0.768-9.857,4.542-16.975,7.587-21.52c3.03-4.553,28.07-65.99,28.07-65.99
	s45.532-40.21,53.841-42.483L116.932,56.46z"/>
<linearGradient id="ian_symbols_bbc25932575dade405356047eaf037ac" gradientUnits="userSpaceOnUse" x1="38.0703" y1="289.6963" x2="82.21" y2="326.7352" gradientTransform="matrix(1 0 0 -1 0 502)">
	<stop  offset="0" style="stop-color:#8B5949"/>
	<stop  offset="0.8202" style="stop-color:#EBCC9D"/>
</linearGradient>
<path fill="url(#ian_symbols_bbc25932575dade405356047eaf037ac)" d="M44.036,198.91c4.377,0.182,6.434,4.269,10.527,6.312c3.688,1.84,7.037,2.165,9.58,5.973
	c2.599,3.484,8.03,5.663,11.029,9.952c1.967,2.815,1.454,7.957,3.443,9.945c3.748,3.782,7.449,4.182,10.683,5.25
	c2.99,0.995-0.109-4.337-3.146-11.461c-1.204-2.862-0.127-6-1.806-9.127c-1.489-2.74-3.383-2.943-5.568-5.466
	c-2.455-2.848-5.29-8.626-8.335-11.333c-2.834-2.557-5.832-2.104-8.823-2.848c-5.047-2.524,0-10.067-2.51-15.093
	c-2.537-2.524-7.557-2.524-12.583-2.524v-15.918c0-4.269,3.112-8.477,3.714-12.752c0.643-4.547-1.191-9.181-1.191-14.073
	c-0.472,0.474-0.974,0.67-1.447,0.69c-5.785,13.768-11.258,26.515-12.57,28.489c-3.045,4.547-6.82,11.663-7.587,21.521
	c-0.629,8.227,2.405,13.598,3.866,17.8c3.072-2.218,9.093-5.509,12.725-5.349V198.91z"/>
<linearGradient id="ian_symbols_bc02cad812ec33f4058d8f5fae382204" gradientUnits="userSpaceOnUse" x1="28.834" y1="372.8047" x2="147.124" y2="372.8047" gradientTransform="matrix(1 0 0 -1 0 502)">
	<stop  offset="0" style="stop-color:#8B5949"/>
	<stop  offset="0.4663" style="stop-color:#987452"/>
	<stop  offset="0.9157" style="stop-color:#C59A71"/>
</linearGradient>
<path fill="url(#ian_symbols_bc02cad812ec33f4058d8f5fae382204)" d="M138.316,81.041c1.88-2.51,4.424-8.802,5.039-11.948c0.629-3.139,3.735-11.054,3.769-11.315
	c0.034-0.27-6.292-1.254-6.292-1.254s-0.637,6.278-2.517,8.812c-1.895,2.513-1.895,11.302-4.412,13.812
	c-2.509,2.537-7.523-1.882-13.191,3.153c-5.663,5.033-3.133,18.868-6.279,21.379c-3.153,2.51-13.836,1.257-16.988,3.769
	c-3.14,2.509-5.65,17.61-7.544,21.371c-1.874,3.789-18.239,13.207-21.372,16.353c-3.139,3.139-1.893,10.689-6.284,13.206
	c-4.397,2.524-13.2,3.153-16.359,6.292c-3.126,3.139-2.51,13.821-4.406,16.346c-1.86,2.51-7.523,2.51-9.417,5.662
	c-1.895,3.139-5.037,13.822-1.895,15.081c3.146,1.258,1.895-8.788,5.041-10.047c3.139-1.278,10.047-3.789,11.311-6.299
	c1.259-2.51,1.259-15.094,3.139-16.975c1.888-1.888,14.478-4.397,17.603-6.908c3.153-2.53,2.537-6.929,3.782-10.067
	c1.266-3.153,20.749-15.717,22.644-18.233c1.86-2.517,6.264-20.75,10.046-21.386c3.775-0.629,9.451-1.887,13.841-5.027
	c4.397-3.139,1.888-21.365,8.166-21.365c6.312-0.003,10.697-1.896,12.584-4.414L138.316,81.041z"/>
<linearGradient id="ian_symbols_c052e7577fc44914c9d19b6ee774bc86" gradientUnits="userSpaceOnUse" x1="31.77" y1="368.2832" x2="166.4907" y2="368.2832" gradientTransform="matrix(1 0 0 -1 0 502)">
	<stop  offset="0" style="stop-color:#8B5949"/>
	<stop  offset="0.4663" style="stop-color:#987452"/>
	<stop  offset="0.9157" style="stop-color:#C59A71"/>
</linearGradient>
<path fill="url(#ian_symbols_c052e7577fc44914c9d19b6ee774bc86)" d="M150.9,98.632c1.895-2.497,3.153-10.04,3.788-13.179c0.257-1.379,4.202-7.116,8.586-10.331
	c5.724-4.188,2.056-13.422,2.097-13.574c0.034-0.271-6.285-1.255-6.285-1.255s3.613,10.696-0.568,14.139
	c-4.154,3.464-6.028,4.717-6.982,5.988c-1.882,2.51,0,11.311-2.517,13.821c-2.523,2.51-11.318,0-15.723,3.146
	c-4.404,3.153-5.664,16.339-8.801,18.849c-3.139,2.537-13.836,1.278-16.975,3.789c-3.125,2.51-5.669,17.603-7.557,21.371
	c-1.86,3.776-13.207,5.663-16.346,8.809c-3.146,3.14-1.881,15.724-6.285,18.233c-4.384,2.509-18.219,5.648-21.372,8.801
	c-3.139,3.146-2.51,13.841-4.404,16.345c-1.888,2.524-12.577,0-14.465,3.146c-1.873,3.146-7.522,8.796-4.397,10.074
	c3.153,1.252,4.397-1.278,7.55-2.524c3.139-1.265,15.086-3.782,16.331-6.292c1.279-2.51,1.279-15.087,3.167-16.975
	c1.88-1.882,19.491-6.928,22.624-9.425c3.146-2.523,2.523-11.954,3.768-15.106c1.272-3.139,15.717-8.173,17.611-10.669
	c1.881-2.537,6.292-20.757,10.053-21.393c3.788-0.629,9.431-1.886,13.834-5.026c4.418-3.16,3.769-15.716,10.69-16.346
	c6.924-0.622,10.687-1.876,12.573-4.415L150.9,98.632z"/>
<linearGradient id="ian_symbols_b0f8bb2e6de1f7a4c5f53605da3ab523" gradientUnits="userSpaceOnUse" x1="33.5615" y1="298.8535" x2="102.9907" y2="298.8535" gradientTransform="matrix(1 0 0 -1 0 502)">
	<stop  offset="0" style="stop-color:#8B5949"/>
	<stop  offset="0.4663" style="stop-color:#987452"/>
	<stop  offset="1" style="stop-color:#B48C65"/>
</linearGradient>
<path fill="url(#ian_symbols_b0f8bb2e6de1f7a4c5f53605da3ab523)" d="M93.044,170.942c0,4.397,4.406,6.92,0,11.326c-4.404,4.404-21.378,12.563-24.511,16.346
	c-3.139,3.768-0.615,7.557-4.39,12.576c-3.788,5.027-13.849,6.908-20.127,10.676c-6.285,3.788-12.591,15.932-9.756,17.393
	c2.828,1.482,7.225-11.095,11.629-13.605s16.359-8.816,21.378-11.312c5.047-2.523-0.628-8.173,5.677-11.332
	c6.285-3.139,23.889-15.094,27.657-18.232c3.788-3.139,2.524-7.543,0-13.835c-2.508-6.271-7.561-4.395-7.561,0L93.044,170.942z"/>
<path fill="none" stroke="#8B5A4A" stroke-width="1.7319" d="M116.932,56.46c8.369-2.273,32.644,0,50.849,6.062
	c18.186,6.072,34.889,43.991,34.889,48.564c0,4.547-0.764,23.51-5.324,28.057c-4.547,4.546-6.062,2.274-13.639,6.819
	c-7.598,4.546-25.811,37.176-31.858,44.753c-6.075,7.597-25.811,21.236-30.356,28.827c-4.56,7.591-6.82,13.66-10.622,18.977
	c-3.776,5.305-9.1,6.819-15.162,12.124c-6.062,5.317-4.546,9.105-8.334,13.659c-3.803,4.546-9.12,15.45-17.456,16.452
	c-8.355,0.987-31.108-24.03-32.602-27.082c-1.536-3.03,0-11.365-3.058-14.41c-3.017-3.031-6.049-10.615-5.311-15.161
	c0.758-4.561,3.809-12.895,3.064-17.455c-0.771-4.547-5.328-10.338-4.569-20.203c0.768-9.857,4.542-16.975,7.587-21.52
	c3.03-4.553,28.07-65.99,28.07-65.99s45.532-40.21,53.841-42.483L116.932,56.46z"/>
<linearGradient id="ian_symbols_dd619717d1ef0a34152472444d65fedb" gradientUnits="userSpaceOnUse" x1="3.0889" y1="363.0186" x2="106.0711" y2="465.9963" gradientTransform="matrix(1 0 0 -1 0 502)">
	<stop  offset="0" style="stop-color:#E9CEB8"/>
	<stop  offset="0.5112" style="stop-color:#E0C6A6"/>
	<stop  offset="0.9494" style="stop-color:#C59A71"/>
</linearGradient>
<path fill="url(#ian_symbols_dd619717d1ef0a34152472444d65fedb)" d="M97.99,29.915c9.106,4.537,18.943,18.186,18.943,25.029c0,6.83-12.124,26.544-17.415,34.899
	c-5.317,8.336-22.001,22.759-31.1,31.852c-9.106,9.093-27.325,39.443-33.387,43.231c-6.083,3.789-19.736-13.659-21.999-22.752
	c-2.273-9.106-2.273-27.312,0-32.616c2.263-5.318,1.529-18.207,2.263-24.268c0.758-6.075,17.461-34.145,17.461-34.145l37.162-20.472
	c0.002-0.003,18.972-5.317,28.072-0.761L97.99,29.915z"/>
<linearGradient id="ian_symbols_3ad5fb022ddd7f64e9a47952282b54d4" gradientUnits="userSpaceOnUse" x1="8.7646" y1="360.0771" x2="37.1403" y2="383.8906" gradientTransform="matrix(1 0 0 -1 0 502)">
	<stop  offset="0" style="stop-color:#8B5949"/>
	<stop  offset="0.8202" style="stop-color:#EBCC9D"/>
</linearGradient>
<path fill="url(#ian_symbols_3ad5fb022ddd7f64e9a47952282b54d4)" d="M36.459,133.232c-10.217-14.329-13.802-28.645-21.542-41.602
	c-0.183,6.326-0.248,14.099-1.885,17.929c-2.273,5.304-2.273,23.51,0,32.616c2.263,9.093,15.916,26.541,21.999,22.752
	c3.077-1.915,9.288-10.683,15.837-20.046c-6.346-2.498-11.765-6.382-14.41-11.64V133.232z"/>
<linearGradient id="ian_symbols_f848dbac7add8584d9eea8e3c2468375" gradientUnits="userSpaceOnUse" x1="31.001" y1="397.6514" x2="45.1562" y2="409.5308" gradientTransform="matrix(1 0 0 -1 0 502)">
	<stop  offset="0" style="stop-color:#8B5949"/>
	<stop  offset="1" style="stop-color:#BE9675"/>
</linearGradient>
<path fill="url(#ian_symbols_f848dbac7add8584d9eea8e3c2468375)" d="M22.638,76.008c0,0,8.788,2.524,13.207,5.676c4.397,3.139,7.536,16.332,12.57,18.219
	c5.034,1.895,6.915,8.802,7.544,12.576c0.616,3.755,0,4.399-1.88,7.544c-1.895,3.139-5.664,1.886-7.55,0
	c-1.867-1.881-9.438-14.458-10.683-16.346c-1.266-1.881-3.775-0.629-7.567-3.139c-3.744-2.523-2.5-4.404-2.5-8.187
	c0-3.761-8.182-9.423-8.182-9.423L22.638,76.008L22.638,76.008z"/>
<path fill="none" stroke="#8B5A4A" stroke-width="1.7319" d="M97.99,29.915c9.106,4.537,18.943,18.186,18.943,25.029
	c0,6.83-12.124,26.544-17.415,34.899c-5.317,8.336-22.001,22.759-31.1,31.852c-9.106,9.093-27.325,39.443-33.387,43.231
	c-6.083,3.789-19.736-13.659-21.999-22.752c-2.273-9.106-2.273-27.312,0-32.616c2.263-5.318,1.529-18.207,2.263-24.268
	c0.758-6.075,17.461-34.145,17.461-34.145l37.162-20.472c0.002-0.003,18.972-5.317,28.072-0.761L97.99,29.915z"/>
<linearGradient id="ian_symbols_4c70cad778212fa449552710ba6acee2" gradientUnits="userSpaceOnUse" x1="-0.9175" y1="427.3096" x2="57.7545" y2="485.9814" gradientTransform="matrix(1 0 0 -1 0 502)">
	<stop  offset="0" style="stop-color:#EACEB3"/>
	<stop  offset="0.5112" style="stop-color:#E0C6A6"/>
	<stop  offset="0.9719" style="stop-color:#C59A71"/>
</linearGradient>
<path fill="url(#ian_symbols_4c70cad778212fa449552710ba6acee2)" d="M56.275,15.498c6.827,3.79,9.371,10.845,8.613,17.688c-0.745,6.82-13.186,15.686-22.285,25.547
	C33.503,68.594,21.62,80.494,19.336,85.04c-2.273,4.553-3.281,4.024-7.838,1.766C6.961,84.519,9.983,76.42,7.71,74.148
	c-2.253-2.287-3.272-2.747-4.788-7.293c-1.516-4.571-2.033-13.426,2.534-17.982c4.546-4.56,17.44-29.584,17.44-29.584
	S49.448,11.707,56.275,15.498z"/>
<linearGradient id="ian_symbols_8f7bcfdee2521274f9f792faa48fa68a" gradientUnits="userSpaceOnUse" x1="5.4023" y1="432.5391" x2="29.5417" y2="452.7944" gradientTransform="matrix(1 0 0 -1 0 502)">
	<stop  offset="0" style="stop-color:#8B5949"/>
	<stop  offset="1" style="stop-color:#BE9675"/>
</linearGradient>
<path fill="url(#ian_symbols_8f7bcfdee2521274f9f792faa48fa68a)" d="M16.349,57.778c-1.269,3.143-3.163,6.908,0.626,10.07c3.768,3.14,7.558,10.047,7.558,10.047
	l-5.044,5.663c0,0-6.303-1.875-6.303-6.921c0-5.02-7.524-9.431-5.64-14.461c1.895-5.023,1.895-19.487,1.895-19.487l3.744-5.673
	c0,0,3.789,3.163,6.303,7.558c2.51,4.393,1.884,5.663,6.288,8.182c4.397,2.514,3.153,0.63,7.543,1.885
	c4.412,1.245,3.768,10.696,3.768,10.696l-5.019,2.513c0,0-2.504-1.278-6.292-1.894c-3.778-0.619-3.778-3.778-4.404-5.663
	C20.743,58.407,17.594,54.64,16.349,57.778z"/>
<path fill="none" stroke="#8B5A4A" stroke-width="1.7319" d="M56.275,15.498c6.827,3.79,9.371,10.845,8.613,17.688
	c-0.745,6.82-13.186,15.686-22.285,25.547C33.503,68.594,21.62,80.494,19.336,85.04c-2.273,4.553-3.281,4.024-7.838,1.766
	C6.961,84.519,9.983,76.42,7.71,74.148c-2.253-2.287-3.272-2.747-4.788-7.293c-1.516-4.571-2.033-13.426,2.534-17.982
	c4.546-4.56,17.44-29.584,17.44-29.584S49.448,11.707,56.275,15.498z"/>
<linearGradient id="ian_symbols_18a12becd7aa4f244d7397c89bca3eab" gradientUnits="userSpaceOnUse" x1="-5.6685" y1="461.2461" x2="32.9991" y2="499.9142" gradientTransform="matrix(1 0 0 -1 0 502)">
	<stop  offset="0" style="stop-color:#E9CAB8"/>
	<stop  offset="0.5112" style="stop-color:#E0C6A6"/>
	<stop  offset="0.9494" style="stop-color:#C49B8A"/>
</linearGradient>
<path fill="url(#ian_symbols_18a12becd7aa4f244d7397c89bca3eab)" d="M8.478,0.32c5.314-3.788,25.025,2.284,29.584,6.83c4.54,4.557,6.076,6.831,5.305,9.864
	c-0.764,3.03-9.864,10.866-18.206,14.644C16.826,35.445,8.24,49.359,4.438,50.117c-3.789,0.757-4.295-17.181-2.78-24
	C3.173,19.287,3.173,4.108,8.478,0.32z"/>
<linearGradient id="ian_symbols_30b43fa4cab11634c953280ad5cc29a6" gradientUnits="userSpaceOnUse" x1="4.5518" y1="485.4482" x2="24.3773" y2="505.2746" gradientTransform="matrix(1 0 0 -1 0 502)">
	<stop  offset="0" style="stop-color:#E9CFBF"/>
	<stop  offset="0.8034" style="stop-color:#DEB8A0"/>
</linearGradient>
<path fill="url(#ian_symbols_30b43fa4cab11634c953280ad5cc29a6)" d="M8.478,0.32C5.305,2.604,4.029,8.98,3.173,15.174C13.186,13.547,23.05,9.368,30.58,2.928
	C22.897-0.157,12.167-2.322,8.478,0.32z"/>
<linearGradient id="ian_symbols_29b243f6bb8d00b4b5b38b4cad6beba6" gradientUnits="userSpaceOnUse" x1="6.2998" y1="479.9219" x2="28.8224" y2="502.4442" gradientTransform="matrix(1 0 0 -1 0 502)">
	<stop  offset="0" style="stop-color:#AD8661"/>
	<stop  offset="0.9494" style="stop-color:#C59A71"/>
</linearGradient>
<path fill="url(#ian_symbols_29b243f6bb8d00b4b5b38b4cad6beba6)" d="M33.482,4.217c-0.908-0.442-1.874-0.866-2.903-1.29c-7.53,6.44-17.394,10.619-27.407,12.246
	c-0.163,1.147-0.281,2.26-0.423,3.355C15.179,19.351,26.815,13.787,33.482,4.217z"/>
<path fill="none" stroke="#8B5A4A" stroke-width="1.7319" d="M8.478,0.32c5.314-3.788,25.025,2.284,29.584,6.83
	c4.54,4.557,6.076,6.831,5.305,9.864c-0.764,3.03-9.864,10.866-18.206,14.644C16.826,35.445,8.24,49.359,4.438,50.117
	c-3.789,0.757-4.295-17.181-2.78-24C3.173,19.287,3.173,4.108,8.478,0.32z"/>
</svg>
