
        <svg xmlns:rdf="http://www.w3.org/1999/02/22-rdf-syntax-ns#" xmlns="http://www.w3.org/2000/svg" xmlns:cc="http://creativecommons.org/ns#" xmlns:xlink="http://www.w3.org/1999/xlink" xmlns:dc="http://purl.org/dc/elements/1.1/" x="0px" y="0px" width="501" height="195" viewBox="0 0 501 195" xml:space="preserve">
            <title>Acanthurus lineatus (Striped Surgeon Fish)</title>
            <desc xmlns:ian_image_library="https://ian.umces.edu/media-library/">
                <ian_image_library:title>Acanthurus lineatus (Striped Surgeon Fish)</ian_image_library:title>
                <ian_image_library:descr>Illustration of a Striped Surgeon Fish (Acanthurus Lineatus)</ian_image_library:descr>
                <ian_image_library:scene>
                    <ian_image_library:contains>alogo, striped surgeon fish, Chordata, Actinopterygii, Perciformes, Acanthuridae, Acanthurus, reef fish, coral reef</ian_image_library:contains>
                    <ian_image_library:when>2010-07-30</ian_image_library:when>
                </ian_image_library:scene>
            </desc>
            <metadata id="metadata-iil-bcafef77bac87f84f96efc884153f246">
                <rdf:RDF>
                <cc:Work
                rdf:about="">
                <dc:format>image/svg+xml</dc:format>
                <dc:type
                rdf:resource="http://purl.org/dc/dcmitype/StillImage" />
                <cc:license
                rdf:resource="http://creativecommons.org/licenses/by-sa/3.0/" />
                <dc:title>Acanthurus lineatus (Striped Surgeon Fish)</dc:title>
                <dc:date>2010-07-30</dc:date>
                <dc:creator>
                    <cc:Agent>
                        <dc:title></dc:title>
                    </cc:Agent>
                </dc:creator>
                <dc:rights>
                <cc:Agent>
                    <dc:title></dc:title>
                </cc:Agent>
                </dc:rights>
                <dc:publisher>
                <cc:Agent>
                    <dc:title>Integration and Application Network</dc:title>
                </cc:Agent>
                </dc:publisher>
                <dc:identifier>https://ian.umces.edu/media-library/acanthurus-lineatus-striped-surgeon-fish/</dc:identifier>
                <dc:source>https://ian.umces.edu/media-library/acanthurus-lineatus-striped-surgeon-fish/</dc:source>
                <dc:language>en-US</dc:language>
                <dc:subject>
                <rdf:Bag>
                    <rdf:li>alogo, striped surgeon fish, Chordata, Actinopterygii, Perciformes, Acanthuridae, Acanthurus, reef fish, coral reef</rdf:li>
                </rdf:Bag>
                </dc:subject>
                <dc:coverage></dc:coverage>
                <dc:description>Illustration of a Striped Surgeon Fish (Acanthurus Lineatus)</dc:description>
                <dc:contributor>
                <cc:Agent>
                    <dc:title></dc:title>
                </cc:Agent>
                </dc:contributor>
            </cc:Work>
            <cc:License
                rdf:about="http://creativecommons.org/licenses/by-sa/3.0/">
                <cc:permits
                rdf:resource="http://creativecommons.org/ns#Reproduction" />
                <cc:permits
                rdf:resource="http://creativecommons.org/ns#Distribution" />
                <cc:requires
                rdf:resource="http://creativecommons.org/ns#Notice" />
                <cc:requires
                rdf:resource="http://creativecommons.org/ns#Attribution" />
                <cc:permits
                rdf:resource="http://creativecommons.org/ns#DerivativeWorks" />
                <cc:requires
                rdf:resource="http://creativecommons.org/ns#ShareAlike" />
            </cc:License>
            </rdf:RDF>
            </metadata>
            
<defs>
</defs>
<linearGradient id="ian_symbols_cd8703329a39e934ad81d2195b53cf7e" gradientUnits="userSpaceOnUse" x1="241.2153" y1="153.4614" x2="252.154" y2="196.4308" gradientTransform="matrix(1 0 0 -1 0 196.374)">
	<stop  offset="0.0448" style="stop-color:#6E6F71"/>
	<stop  offset="0.0885" style="stop-color:#68696B"/>
	<stop  offset="0.3372" style="stop-color:#4B494B"/>
	<stop  offset="0.5774" style="stop-color:#353133"/>
	<stop  offset="0.8033" style="stop-color:#272425"/>
	<stop  offset="1" style="stop-color:#231F20"/>
</linearGradient>
<path fill="url(#ian_symbols_cd8703329a39e934ad81d2195b53cf7e)" d="M135.748,4.79c0,0,13.167-4.79,63.255-4.79s122.598,30.424,131.582,35.557
	c8.984,5.137,26.256,8.636,24.138,13.789c-2.127,5.153-42.401,0-42.401,0L135.748,4.79z"/>
<linearGradient id="ian_symbols_465632c68c2e1f64551ef58c11ff3f7a" gradientUnits="userSpaceOnUse" x1="408.7529" y1="26.9053" x2="444.1425" y2="165.9228" gradientTransform="matrix(1 0 0 -1 0 196.374)">
	<stop  offset="0.0448" style="stop-color:#928A4C"/>
	<stop  offset="0.0892" style="stop-color:#807945"/>
	<stop  offset="0.1847" style="stop-color:#5F5939"/>
	<stop  offset="0.2829" style="stop-color:#453F2E"/>
	<stop  offset="0.3838" style="stop-color:#322E27"/>
	<stop  offset="0.4889" style="stop-color:#272221"/>
	<stop  offset="0.6053" style="stop-color:#231F20"/>
	<stop  offset="0.6655" style="stop-color:#2C2925"/>
	<stop  offset="0.7636" style="stop-color:#453F2E"/>
	<stop  offset="0.8866" style="stop-color:#6C663E"/>
	<stop  offset="0.9877" style="stop-color:#928A4C"/>
</linearGradient>
<path fill="url(#ian_symbols_465632c68c2e1f64551ef58c11ff3f7a)" d="M393.45,57.235c0,0,13.972-3.503,34.419-4.805c20.454-1.302,59.485,7.127,59.485,7.127l12.645,6.091
	l-12.174-2.811c0,0-24.825,1.404-35.131,5.153c-10.307,3.746-22.012,14.516-26.227,23.883c-4.214,9.367-4.683,34.662,0,41.687
	c4.686,7.025,42.622,30.443,42.622,30.443s-2.526,2.342-7.499,0c-4.972-2.342-21.541-10.149-21.541-10.149l-35.6-17.019
	c0,0-27.766-16.658-29.307-23.203c-1.531-6.541-10.023-27.377-10.023-27.377L393.45,57.235z"/>
<linearGradient id="ian_symbols_a99d983b90d4fbe4cd5d2158c2c2c159" gradientUnits="userSpaceOnUse" x1="233.7593" y1="72.9639" x2="251.0769" y2="17.6291" gradientTransform="matrix(1 0 0 -1 0 196.374)">
	<stop  offset="0.0448" style="stop-color:#6E6F71"/>
	<stop  offset="0.2402" style="stop-color:#59585A"/>
	<stop  offset="0.5517" style="stop-color:#3C3A3A"/>
	<stop  offset="0.8161" style="stop-color:#2A2627"/>
	<stop  offset="1" style="stop-color:#231F20"/>
</linearGradient>
<path fill="url(#ian_symbols_a99d983b90d4fbe4cd5d2158c2c2c159)" d="M119.226,190.733c0,0,12.135,2.675,30.248,2.64c18.112-0.031,86.173-15.334,127.704-27.195
	c41.53-11.865,91.11-45.342,89.922-49.963c-2.807-10.924-30.071-10.924-30.071-10.924l-153.521,47.771L119.226,190.733z"/>
<linearGradient id="ian_symbols_f45231057bd14ad44d8abe5e6ff8856d" gradientUnits="userSpaceOnUse" x1="355.2783" y1="152.8442" x2="351.1511" y2="79.5844" gradientTransform="matrix(1 0 0 -1 0 196.374)">
	<stop  offset="0" style="stop-color:#F2F2B4"/>
	<stop  offset="0.4379" style="stop-color:#F0E75C"/>
	<stop  offset="1" style="stop-color:#928A4C"/>
</linearGradient>
<path fill="url(#ian_symbols_f45231057bd14ad44d8abe5e6ff8856d)" d="M315.424,49.346c11.635,5.228,26.366,5.168,39.345,5.153c6.891-0.008,13.652,0.148,20.502,0.469
	c6.396,0.293,14.06-0.234,20.188,1.474c-0.93,4.445-7.482,7.901-9.335,12.702c-2.502,6.501-3.973,13.394-6.428,19.872
	c-2.533,6.681-5.889,17.217-4.763,24.353c-1.735-10.248-22.308-11.1-30.313-11.1c-2.433,0-8.202,1.07-10.462,0.055
	c-4.91-2.197-6.561-9.766-7.39-14.458c-1.627-9.219-3.111-18.035-7.146-26.721c-1.572-3.405-6.067-7.362-5.599-11.33"/>
<linearGradient id="ian_symbols_722e68b36b514bd405e0423d6a2b27bb" gradientUnits="userSpaceOnUse" x1="6.9282" y1="120.0854" x2="110.2928" y2="44.3882" gradientTransform="matrix(1 0 0 -1 0 196.374)">
	<stop  offset="0" style="stop-color:#928A4C"/>
	<stop  offset="0.5621" style="stop-color:#F0E75C"/>
	<stop  offset="1" style="stop-color:#F2F2B4"/>
</linearGradient>
<path fill="url(#ian_symbols_722e68b36b514bd405e0423d6a2b27bb)" d="M12.258,155.235c-2.342,0.242-3.288,2.913-5.852,2.343c-2.221-0.494-2.061-2.197-0.716-3.793
	c1.583-1.875,9.981-5.168,6.58-9.027c-3.295-3.746-9.219,6.537-11.9-0.762c-0.735-1.994-0.34-4.315,0.879-6.037
	c1.298-1.83,7.049-16.666,8.265-22.957c1.83-9.469,4.296-18.472,7.545-27.612c1.263-3.546,2.107-7.189,3.573-10.653
	c1.322-3.116,1.74-7.025,3.753-9.547c2.542-3.175,5.806-5.704,8.651-8.605c3.73-3.792,7.151-7.905,10.439-12.068
	c2.357-2.995,12.737-10.791,15.853-10.947c3.901-0.191,7.608,2.131,10.11,4.996c6.873,7.854,13.359,17.436,16.999,27.289
	c5.797,15.697,11.669,31.081,14.52,47.665c1.259,7.307,2.572,14.613,2.635,22.046c0.027,2.696,0.41,6.615-0.99,9.046
	c-2.193,3.792-8.89,4.512-12.608,5.579c-7.861,2.265-15.99,1.423-23.883,3.222c-7.232,1.65-14.981,2.166-22.288,2.871
	c-3.929,0.375-8.034,0.898-11.908,0.934c-3.44,0.035-6.205-0.148-9.402-1.123c-3.64-1.109-7.311-2.6-11.189-2.623"/>
<linearGradient id="ian_symbols_99a6cf2b7554da5431e7c7e561eb5497" gradientUnits="userSpaceOnUse" x1="188.4277" y1="196.7251" x2="212.327" y2="49.0878" gradientTransform="matrix(1 0 0 -1 0 196.374)">
	<stop  offset="0" style="stop-color:#F2F2B4"/>
	<stop  offset="0.3742" style="stop-color:#F0E75C"/>
	<stop  offset="1" style="stop-color:#CBBF58"/>
</linearGradient>
<path fill="url(#ian_symbols_99a6cf2b7554da5431e7c7e561eb5497)" d="M92.434,120.554c-0.094-11.205-17.577-48.673-17.577-48.673L56.749,36.284
	c0,0,21.854-20.549,58.075-28.727c36.221-8.183,106.723,3.578,110.533,4.371s59.323,19.981,79.308,29.974
	c19.985,9.993,27.477,21.858,27.477,21.858s10.104,15.443,7.579,31.225c-4.989,27.282-61.283,33.097-61.283,33.097l-128.644,24.979
	l-66.196-2.498C83.599,150.563,92.523,131.761,92.434,120.554z"/>
<linearGradient id="ian_symbols_4225827f4d4e93341df0bc71155191c5" gradientUnits="userSpaceOnUse" x1="181.0864" y1="67.0098" x2="189.632" y2="14.2199" gradientTransform="matrix(1 0 0 -1 0 196.374)">
	<stop  offset="0" style="stop-color:#8EB9D9"/>
	<stop  offset="0.3742" style="stop-color:#7595AA"/>
	<stop  offset="1" style="stop-color:#495969"/>
</linearGradient>
<path fill="url(#ian_symbols_4225827f4d4e93341df0bc71155191c5)" d="M25.464,158.796c-2.494-4.375,130.558-18.223,130.558-18.223s170.292-26.736,179.012-36.73
	c2.963-3.393,3.331,1.135-0.415,8.629c-3.598,7.201-115.525,61.195-152.994,68.689c-37.469,7.494-71.188,13.117-95.545,8.121
	C61.725,184.283,27.963,163.167,25.464,158.796z"/>
<path fill="#1C4B67" d="M92.191,121.054l37.938-3.276l62.736-9.112l47.797-11.275l39.811-7.404l27.366-3.538l27.429-2.064
	c0,0,15.929,0.622,19.454,0c2.948-0.52,7.451,1.103,7.787-4.539c0.329-5.641-6.005-5.516-11.313-6.998
	c-5.411-1.513-24.356,0-24.356,0l-29.979,1.482l-39.807,4.598l-47.774,7.522l-45.433,10.239l-47.179,11.979L92.191,121.054z"/>
<path fill="#1C4B67" d="M104.515,128.205c2.197-3.4,86.032-14.203,86.032-14.203l86.646-15.74c0,0,58.545-11.813,65.564-11.813
	c7.03,0,13.254,0.188,17.813,0c4.55-0.192-0.346,10.239-0.346,10.239s-16.467,0.901-25.896,2.576s-37.938,11.713-37.938,11.713
	l-42.617,9.145l-48.521,8.898c0,0-30.091,5.355-41.406,6.087c-11.31,0.735-44.959,2.913-44.959,2.913H99.687
	C99.687,138.017,102.321,131.609,104.515,128.205z"/>
<path fill="#1C4B67" d="M86.105,102.761c5.458-5.711,81.494-24.599,81.494-24.599s51.988-16.521,66.504-19.133
	c14.52-2.608,61.359-1.658,61.359-1.658l25.287,1.658c0,0,3.526,0.242,6.583,2.037c3.05,1.791-5.646,6.283-5.646,6.283
	s-1.376-0.004-5.151,0.105c-3.776,0.109-24.84,0.612-33.478,0.978s-56.446,9.73-56.446,9.73l-72.13,18.523l-49.967,12.193
	l-18.41,3.422C86.105,112.3,80.643,108.473,86.105,102.761z"/>
<path fill="#1C4B67" d="M77.891,92.296c0,0,43.794-17.308,55.476-21.823c12.319-4.762,33.712-15.556,47.7-18.265
	c13.988-2.709,43.118-10.114,56.316-10.896c13.198-0.786,35.682-3.8,45.676-2.709c6.638,0.725,14.48,1.011,19.581,2.217
	c1.913,0.904,3.406,1.825,5.139,2.717c3.299,4.136,2.791,3.687,0.062,7.268c-6.295,8.226-36.292-1.083-44.697,0.465
	c-8.404,1.548-42.151,7.76-42.151,7.76l-74.938,20.373L94.999,96.686l-14.915,1.575L77.891,92.296z"/>
<path fill="#1C4B67" d="M88.208,83.026c11.365-8.898,25.075-10.192,38.172-15.572c46.453-19.07,88.339-31.03,138.623-31.479
	c3.144-0.029,9.701-4.01,10.146-6.589c-2.509-1.092-5.586-2.146-5.96-2.142c-41.127,0.443-71.81,5.053-111.172,17.261
	C138.766,50.467,120,58.001,101.09,64.901c-7.456,2.725-13.793,8.288-20.087,13.147C72.011,85.004,85.053,85.501,88.208,83.026z"/>
<linearGradient id="ian_symbols_310dcc01ebafbb34e564c02db9c8de67" gradientUnits="userSpaceOnUse" x1="19.7559" y1="153.0337" x2="174.1001" y2="153.0337" gradientTransform="matrix(1 0 0 -1 0 196.374)">
	<stop  offset="0.0061" style="stop-color:#557889"/>
	<stop  offset="0.3374" style="stop-color:#709FD1"/>
	<stop  offset="0.6861" style="stop-color:#B8CCE2"/>
	<stop  offset="0.9552" style="stop-color:#F2F2F2"/>
</linearGradient>
<path fill="url(#ian_symbols_310dcc01ebafbb34e564c02db9c8de67)" d="M171.574,7.878c-25.357,5.07-50.448,14.32-73.511,25.912c-11.927,5.997-23.374,13.073-35.181,19.336
	c-8.902,4.719-17.323,10.196-26.433,14.547c-3.487,1.665-12.494,7.639-15.673,8.71l-1.02,2.631
	c17.792-3.706,32.855-17.088,48.63-25.818c32.5-17.98,64.937-35.463,101.792-42.836C172.954,9.805,176.656,6.861,171.574,7.878z"/>
<linearGradient id="ian_symbols_334d6d251ecf0aa401a05e89045a1e3f" gradientUnits="userSpaceOnUse" x1="48.2778" y1="163.3198" x2="160.7261" y2="163.3198" gradientTransform="matrix(1 0 0 -1 0 196.374)">
	<stop  offset="0.0123" style="stop-color:#709FD1"/>
	<stop  offset="0.5445" style="stop-color:#B8CCE2"/>
	<stop  offset="0.9552" style="stop-color:#F2F2F2"/>
</linearGradient>
<path fill="url(#ian_symbols_334d6d251ecf0aa401a05e89045a1e3f)" d="M151.56,4.814c-22.683,5.052-41.592,14.901-63.403,22.751c-17.858,6.427-28.308,14.899-39.263,30.162
	c-2.681,3.737,4.141,4.723,6.041,2.072c12.377-17.241,25.936-24.418,45.87-31.385c19.25-6.725,36.937-16.154,57.141-20.138
	c2.412-0.477,3.124-2.045,2.635-3.295L151.56,4.814z"/>
<linearGradient id="ian_symbols_bbdf78385804cbc4c5ada33ce6811e25" gradientUnits="userSpaceOnUse" x1="54.5557" y1="157.7466" x2="217.4897" y2="157.7466" gradientTransform="matrix(1 0 0 -1 0 196.374)">
	<stop  offset="0.0123" style="stop-color:#709FD1"/>
	<stop  offset="0.5445" style="stop-color:#B8CCE2"/>
	<stop  offset="0.9552" style="stop-color:#F2F2F2"/>
</linearGradient>
<path fill="url(#ian_symbols_bbdf78385804cbc4c5ada33ce6811e25)" d="M56.615,67.451c19.297-0.379,39.247-15.435,55.519-24.724
	c29.802-17.018,65.789-23.652,99.485-28.708c2.36-0.355,5.871-3.366,5.871-3.366s-3.955-0.642-6.082-0.851
	c-23.742,3.562-49.412,7.169-71.802,15.832c-10.982,4.25-22.3,7.374-32.66,12.968c-11.717,6.326-32.085,19.689-47.559,24.591
	C56.729,64.034,51.728,67.548,56.615,67.451L56.615,67.451z"/>
<linearGradient id="ian_symbols_40c253a6b3d3dcb439838b7827b01984" gradientUnits="userSpaceOnUse" x1="71.8447" y1="151.4644" x2="248.0249" y2="151.4644" gradientTransform="matrix(1 0 0 -1 0 196.374)">
	<stop  offset="0.0123" style="stop-color:#709FD1"/>
	<stop  offset="0.1425" style="stop-color:#77A4D3"/>
	<stop  offset="0.3455" style="stop-color:#8EB3D9"/>
	<stop  offset="0.5959" style="stop-color:#B2C9E1"/>
	<stop  offset="0.8816" style="stop-color:#E3E8ED"/>
	<stop  offset="0.9552" style="stop-color:#F2F2F2"/>
</linearGradient>
<path fill="url(#ian_symbols_40c253a6b3d3dcb439838b7827b01984)" d="M240.724,16.979c-22.116,1.896-45.259,5.662-66.155,12.4
	c-33.485,10.802-70.352,20.56-100.873,38.376c-4.23,2.467-0.379,6.63,3.269,4.5c29.974-17.495,66.117-26.819,98.996-37.672
	c21.573-7.119,45.831-11.224,68.627-12.862c1.728-0.125,2.924-1.165,3.437-2.307L240.724,16.979z"/>
<linearGradient id="ian_symbols_e3789a1d55ae1ae4415a3546abd284ad" gradientUnits="userSpaceOnUse" x1="46.4229" y1="139.0015" x2="273.54" y2="139.0015" gradientTransform="matrix(1 0 0 -1 0 196.374)">
	<stop  offset="0.0245" style="stop-color:#557889"/>
	<stop  offset="0.2577" style="stop-color:#709FD1"/>
	<stop  offset="0.3838" style="stop-color:#77A4D0"/>
	<stop  offset="0.5803" style="stop-color:#8EB3D0"/>
	<stop  offset="0.8214" style="stop-color:#B1CACD"/>
	<stop  offset="0.9552" style="stop-color:#C8D9CB"/>
</linearGradient>
<path fill="url(#ian_symbols_e3789a1d55ae1ae4415a3546abd284ad)" d="M47.432,78.186c12.569,2.526,20.557,9.602,33.696,8.034c3.854-0.458,8.588-2.705,11.521-5.004
	c10.559-8.269,23.101-11.928,35.275-16.928c43.169-17.718,89.203-28.973,135.93-29.392c2.715-0.024,8.188-2.628,9.547-4.557
	c0.815-1.157-2.145-1.805-3.48-2.039c-38.739,0.348-75.492,7.999-112.406,19.446c-17.886,5.543-35.322,12.538-52.895,18.953
	c-6.928,2.533-12.815,5.372-18.665,9.891c-8.354,6.458-17.878-2.682-26.749-4.465C55.517,71.388,42.779,77.252,47.432,78.186
	L47.432,78.186z"/>
<linearGradient id="ian_symbols_0d34b85d9c7399446584080123f56b1e" gradientUnits="userSpaceOnUse" x1="9.6846" y1="84.0767" x2="47.1426" y2="84.0767" gradientTransform="matrix(1 0 0 -1 0 196.374)">
	<stop  offset="0.2577" style="stop-color:#375969"/>
	<stop  offset="0.4329" style="stop-color:#3E6171"/>
	<stop  offset="0.7055" style="stop-color:#527586"/>
	<stop  offset="0.7362" style="stop-color:#557889"/>
</linearGradient>
<path fill="url(#ian_symbols_0d34b85d9c7399446584080123f56b1e)" d="M34.703,78.577C22.72,85.591,11.304,99.599,9.776,114.423c-1.752,16.99,22.127,25.619,32.777,31.822
	c1.447,0.85,6.154-1.392,4.062-2.611c-11.485-6.692-28.543-12.264-31.643-27.674c-2.725-13.535,13.112-30.072,22.89-35.795
	C40.875,78.397,36.348,77.615,34.703,78.577L34.703,78.577z"/>
<linearGradient id="ian_symbols_0330a4b91bb2f02469abfcd0acc18c74" gradientUnits="userSpaceOnUse" x1="18.7188" y1="90.853" x2="133.3652" y2="90.853" gradientTransform="matrix(1 0 0 -1 0 196.374)">
	<stop  offset="0.2577" style="stop-color:#375969"/>
	<stop  offset="0.4329" style="stop-color:#3E6171"/>
	<stop  offset="0.7055" style="stop-color:#527586"/>
	<stop  offset="0.7362" style="stop-color:#557889"/>
</linearGradient>
<path fill="url(#ian_symbols_0330a4b91bb2f02469abfcd0acc18c74)" d="M55.564,135.316c-2.268-7.814-8.722-10.669-15.731-13.879c-7.674-3.512-15.259-6.079-15.056-16.623
	c0.418-21.643,29.547-15.173,41.175-8.496c5.719,3.284,11.181,3.112,17.174,1.092c15.626-5.263,30.463-11.401,46.5-15.952
	c3.284-0.934,5.375-8.761,2.076-7.823c-12.558,3.566-53.67,24.291-64.808,17.894c-9.192-5.278-18.137-10.626-28.829-5.367
	c-7.147,3.519-22.382,13.125-18.812,23.613c5.117,15.032,26.584,19.941,33.633,26.831C54.539,138.22,56.201,137.509,55.564,135.316
	L55.564,135.316z"/>
<linearGradient id="ian_symbols_cbc6ea0df32efb14b54329932a69b435" gradientUnits="userSpaceOnUse" x1="124.3892" y1="135.3062" x2="307.8398" y2="135.3062" gradientTransform="matrix(1 0 0 -1 0 196.374)">
	<stop  offset="0.0245" style="stop-color:#557889"/>
	<stop  offset="0.2577" style="stop-color:#709FD1"/>
	<stop  offset="0.3838" style="stop-color:#77A4D0"/>
	<stop  offset="0.5803" style="stop-color:#8EB3D0"/>
	<stop  offset="0.8214" style="stop-color:#B1CACD"/>
	<stop  offset="0.9552" style="stop-color:#C8D9CB"/>
</linearGradient>
<path fill="url(#ian_symbols_cbc6ea0df32efb14b54329932a69b435)" d="M305.001,44.831c-28.729-6.056-56.934-3.604-85.512,2.134c-30.639,6.15-63.713,13.175-91.432,27.879
	c-8.624,4.574-0.035,7.135,5.309,5.465c23.926-7.463,51.223-16.451,74.922-22.565c28.84-7.44,58.553-10.912,87.933-4.715
	C301.1,54.057,313.352,46.594,305.001,44.831L305.001,44.831z"/>
<linearGradient id="ian_symbols_9f5b93471061a39419afc248c43b3a14" gradientUnits="userSpaceOnUse" x1="37.4453" y1="111.3696" x2="324.6895" y2="111.3696" gradientTransform="matrix(1 0 0 -1 0 196.374)">
	<stop  offset="0.0245" style="stop-color:#557889"/>
	<stop  offset="0.4294" style="stop-color:#709FD1"/>
	<stop  offset="0.5405" style="stop-color:#73A2D1"/>
	<stop  offset="0.6523" style="stop-color:#7FAAD0"/>
	<stop  offset="0.7644" style="stop-color:#94B7CF"/>
	<stop  offset="0.8762" style="stop-color:#AFC9CD"/>
	<stop  offset="0.9552" style="stop-color:#C8D9CB"/>
</linearGradient>
<path fill="url(#ian_symbols_9f5b93471061a39419afc248c43b3a14)" d="M37.779,97.179c27.992,27.765,75.454,6.337,105.944-1.47c28.672-7.338,68.251-19.246,86.29-22.151
	c29.415-4.738,59.975-8.902,89.79-8.542c2.689,0.031,7.727-4.011,2.83-4.07c-18.288-0.223-36.084-2.611-55.041-1.712
	c-26.546,1.267-54.229,6.779-78.757,14.325c-21.792,6.705-43.642,12.698-65.742,18.312c-24.646,6.271-57.06,23.843-78.588,2.482
	C42.71,92.577,35.868,95.283,37.779,97.179L37.779,97.179z"/>
<linearGradient id="ian_symbols_698c9988ef61ea14a5619d2670a5595a" gradientUnits="userSpaceOnUse" x1="30.272" y1="98.1147" x2="360.5664" y2="98.1147" gradientTransform="matrix(1 0 0 -1 0 196.374)">
	<stop  offset="0.0245" style="stop-color:#557889"/>
	<stop  offset="0.4294" style="stop-color:#709FD1"/>
	<stop  offset="0.5405" style="stop-color:#73A2D1"/>
	<stop  offset="0.6523" style="stop-color:#7FAAD0"/>
	<stop  offset="0.7644" style="stop-color:#94B7CF"/>
	<stop  offset="0.8762" style="stop-color:#AFC9CD"/>
	<stop  offset="0.9552" style="stop-color:#C8D9CB"/>
</linearGradient>
<path fill="url(#ian_symbols_698c9988ef61ea14a5619d2670a5595a)" d="M358.89,76.896c-18.146-5.618-35.662-0.391-54.325,0.407c-26.668,1.134-55.887,3.143-83.781,9.136
	c-30.822,6.627-61.677,13.089-92.502,19.673c-15.834,3.382-31.691,7.386-47.724,9.668c-9.047,1.286-22.546,1.673-29.892-3.862
	c-4.73-3.563-8.555-7.328-13.765-10.307c-2.811-1.605-9.129,2.193-5.567,4.23c6.454,3.687,11.521,10.309,18.101,13.396
	c9.41,4.422,20.399,2.803,30.506,1.939c28.672-2.451,60.003-6.107,88.128-12.065c31.401-6.653,65.449-14.782,93.437-17.565
	c13.007-1.294,29.963-4.269,42.856-6.544c18.351-3.241,31.611-4.183,50.377-3.155C358.045,82.033,363.276,78.253,358.89,76.896
	L358.89,76.896z"/>
<linearGradient id="ian_symbols_dae65fb89fb523e4ddaa8772a2e8a56b" gradientUnits="userSpaceOnUse" x1="51.6611" y1="82.3735" x2="360.2266" y2="82.3735" gradientTransform="matrix(1 0 0 -1 0 196.374)">
	<stop  offset="0.2577" style="stop-color:#375969"/>
	<stop  offset="0.4329" style="stop-color:#3E6171"/>
	<stop  offset="0.7055" style="stop-color:#527586"/>
	<stop  offset="0.7362" style="stop-color:#557889"/>
</linearGradient>
<path fill="url(#ian_symbols_dae65fb89fb523e4ddaa8772a2e8a56b)" d="M55.775,137.603c46.394,1.697,95.278-1.912,139.647-9.52c21.463-3.684,49.24-8.209,73.809-14.023
	c28.75-6.807,57.509-18.911,87.221-19.075c4.02-0.023,5.652-5.023,0.727-5c-48.673,0.273-96.873,16.24-144.725,24.086
	c-22.456,3.683-45.217,3.022-67.517,7.322c-28.829,5.556-61.911,11.028-91.095,9.969C50.516,131.242,50.868,137.423,55.775,137.603
	L55.775,137.603z"/>
<path opacity="0.35" fill="#928A4C" enable-background="new    " d="M51.775,64.386c0,0,39.021,13.425,42.77,25.291
	c3.745,11.866,5.305,29.353,5.305,29.353H81.429c0,0,5.625-16.862,0-27.323c-5.622-10.458-25.303-20.138-25.303-20.138
	L51.775,64.386z"/>
<linearGradient id="ian_symbols_bf20f204ffb6f1e48559d45f02cb6ced" gradientUnits="userSpaceOnUse" x1="101.7314" y1="80.4624" x2="108.5999" y2="20.8244" gradientTransform="matrix(1 0 0 -1 0 196.374)">
	<stop  offset="0.1779" style="stop-color:#F2F2B4"/>
	<stop  offset="0.1981" style="stop-color:#F1F1AC"/>
	<stop  offset="0.3016" style="stop-color:#F0ED89"/>
	<stop  offset="0.3999" style="stop-color:#EFEA72"/>
	<stop  offset="0.4901" style="stop-color:#F0E863"/>
	<stop  offset="0.5644" style="stop-color:#F0E75C"/>
	<stop  offset="1" style="stop-color:#CBBF58"/>
</linearGradient>
<path fill="url(#ian_symbols_bf20f204ffb6f1e48559d45f02cb6ced)" d="M77.206,120.341c0,0,19.646-2.951,23.118,0c3.468,2.953,30.599,25.761,30.283,29.037
	c-0.313,3.271-38.712,28.887-40.589,27.789c-1.876-1.1-3.433-38.252-4.371-45.276C84.705,124.867,77.206,120.341,77.206,120.341z"/>
<radialGradient id="ian_symbols_2d70db1ce5b2097431845a5f90fe6e54" cx="46.458" cy="122.9282" r="10.3148" gradientTransform="matrix(1 0 0 -1 0 196.374)" gradientUnits="userSpaceOnUse">
	<stop  offset="0.1779" style="stop-color:#231F20"/>
	<stop  offset="0.3043" style="stop-color:#312E30"/>
	<stop  offset="0.5639" style="stop-color:#474648"/>
	<stop  offset="0.8029" style="stop-color:#545556"/>
	<stop  offset="1" style="stop-color:#595A5C"/>
</radialGradient>
<path fill="url(#ian_symbols_2d70db1ce5b2097431845a5f90fe6e54)" d="M56.294,73.448c0,5.946-4.406,10.771-9.836,10.771c-5.434,0-9.836-4.824-9.836-10.771
	c0-5.955,4.402-10.775,9.836-10.775C51.888,62.673,56.294,67.494,56.294,73.448z"/>
<path opacity="0.25" fill="#928A4C" enable-background="new    " d="M332.142,63.76c0,0-7.491-11.865-27.477-21.858
	c-12.463-6.231-40.223-16.347-59.355-23.08c12.966,16.281,32.408,25.671,46.192,42.698c14.906,16.963,9.869,51.463,7.362,71.673
	c3.047-1.212,14.845-7.557,18.845-9.689s15.071-8.425,16.355-10.222c0.869-1.217,2.26-4.146,2.845-6.045
	c0.611-1.985,0.398-2.924,0.444-3.378c0.089-0.889-0.772-0.907-0.593-1.228c1.477-2.629,2.515-5.214,2.96-7.647
	C342.246,79.203,332.142,63.76,332.142,63.76z"/>
</svg>
